<svg width="54" height="50" viewBox="0 0 54 50" fill="none" xmlns="http://www.w3.org/2000/svg">
<path d="M14.6401 22.868C12.8043 22.5344 12.6252 21.4598 12.7801 19.048C11.2244 19.0909 10.0201 17.628 9.88011 16.668C9.74011 15.708 10.6744 13.9383 12.7801 13.5681C9.94011 11.8481 11.8347 9.60259 13.5801 9.84812C13.718 7.78255 14.637 6.42697 16.4601 5.7681C18.5201 4.46812 21.1401 8.38811 21.8001 8.38811C22.4601 8.38812 22.6601 5.39994 25.0001 6.91994C27.3401 8.43994 28.4801 5.28812 30.4001 5.5281C32.3201 5.76809 32.6684 7.07531 32.3201 8.82812C37.3758 7.2364 36.2872 11.7819 35.7201 12.448C35.153 13.1142 38.0401 13.0083 38.2401 13.8681C38.4401 14.728 38.8601 16.5599 37.7601 17.0281C36.6601 17.4963 34.4601 15.6999 34.1001 15.868C33.7401 16.036 33.3204 17.2853 32.3201 17.628C31.0955 17.3883 30.9401 14.6199 30.8601 14.728C30.7801 14.836 28.9201 17.8999 27.8401 17.828C26.7601 17.756 25.2801 14.9999 25.3001 15.308C25.3201 15.616 25.3401 16.916 25.0001 17.628C24.6601 18.3399 25.071 17.0799 24.6601 17.128C24.2492 17.176 23.6201 18.708 23.6201 18.708C22.6867 18.5115 22.6967 17.7517 22.8201 16.268C22.4495 17.9011 19.6601 19.3599 19.8201 18.708C19.9801 18.056 21.2601 17.2081 20.6001 17.628C19.9401 18.0478 18.8881 18.5911 17.4201 17.348C17.4201 17.348 18.1601 16.4681 17.7401 16.668C17.3201 16.8678 15.7401 17.6478 15.9001 17.828C16.0601 18.0081 16.4601 17.628 16.4601 17.628C16.6248 20.8512 17.0073 23.0485 14.6401 22.868Z" fill="white"/>
<path d="M17.2001 9.32812C16.7201 8.16812 18.0601 7.30811 18.6601 8.38811M12.7801 19.048C12.6252 21.4598 12.8043 22.5344 14.6401 22.868C17.0073 23.0485 16.6248 20.8512 16.4601 17.628C16.4601 17.628 16.0601 18.0081 15.9001 17.828C15.7401 17.6478 17.3201 16.8678 17.7401 16.668C18.1601 16.4681 17.4201 17.348 17.4201 17.348C18.8881 18.5911 19.9401 18.0478 20.6001 17.628C21.2601 17.2081 19.9801 18.056 19.8201 18.708C19.6601 19.3599 22.4495 17.9011 22.8201 16.268C22.6967 17.7517 22.6867 18.5115 23.6201 18.708C23.6201 18.708 24.2492 17.176 24.6601 17.128C25.071 17.0799 24.6601 18.3399 25.0001 17.628C25.3401 16.916 25.3201 15.616 25.3001 15.308C25.2801 14.9999 26.7601 17.756 27.8401 17.828C28.9201 17.8999 30.7801 14.836 30.8601 14.728C30.9401 14.6199 31.0955 17.3883 32.3201 17.628C33.3204 17.2853 33.7401 16.036 34.1001 15.868C34.4601 15.6999 36.6601 17.4963 37.7601 17.0281C38.8601 16.5599 38.4401 14.728 38.2401 13.8681C38.0401 13.0083 35.153 13.1142 35.7201 12.448C36.2872 11.7819 37.3758 7.2364 32.3201 8.82812C32.6684 7.07531 32.3201 5.76809 30.4001 5.5281C28.4801 5.28812 27.3401 8.43994 25.0001 6.91994C22.6601 5.39994 22.4601 8.38812 21.8001 8.38811C21.1401 8.38811 18.5201 4.46812 16.4601 5.7681C14.637 6.42697 13.718 7.78255 13.5801 9.84812C11.8347 9.60259 9.94011 11.8481 12.7801 13.5681C10.6744 13.9383 9.74011 15.708 9.88011 16.668C10.0201 17.628 11.2244 19.0909 12.7801 19.048Z" stroke="black" stroke-width="0.6"/>
<path d="M13.7002 15.28C14.5402 14.2 15.7802 14.68 16.0402 15.46" stroke="black" stroke-width="0.6" stroke-linecap="round"/>
<path d="M15.2335 13.8195C15.8567 12.6001 17.1678 12.8371 17.5708 13.554" stroke="black" stroke-width="0.6" stroke-linecap="round"/>
<path d="M16.9815 9.0701C17.386 7.76302 18.7156 7.77421 19.2343 8.41217" stroke="black" stroke-width="0.6" stroke-linecap="round"/>
<path d="M24.6761 11.77C25.8937 11.1459 26.8149 12.1047 26.7211 12.9216" stroke="black" stroke-width="0.6" stroke-linecap="round"/>
<path d="M32.8985 10.9163C33.8939 10.4678 34.6925 11.2454 34.6402 11.88" stroke="black" stroke-width="0.6" stroke-linecap="round"/>
<path d="M34.9783 13.9964C35.9738 13.5479 36.7723 14.3255 36.7201 14.9601" stroke="black" stroke-width="0.6" stroke-linecap="round"/>
<path d="M21.1683 11.8786C23.0032 10.6737 24.2364 12.1405 24.0118 13.511" stroke="black" stroke-width="0.6" stroke-linecap="round"/>
<path d="M26.2081 8.8635C28.043 7.65858 29.2762 9.12537 29.0516 10.4959" stroke="black" stroke-width="0.6" stroke-linecap="round"/>
<path d="M30.143 11.1393C31.8645 9.77737 33.2222 11.1298 33.1193 12.5147" stroke="black" stroke-width="0.6" stroke-linecap="round"/>
<path d="M30.6002 18.1802C31.1664 19.191 31.788 19.4252 33.5402 19.1402C34.5776 19.5193 34.9721 19.8414 34.7802 20.9402C33.466 20.5108 32.6862 20.515 31.2202 20.9402C31.7166 28.592 31.8876 32.8802 31.9802 40.5202C27.4176 41.6972 24.5588 41.9038 18.8002 41.2802C18.4041 35.4767 18.1786 32.6233 17.7402 32.0002C16.7318 33.0559 16.6496 35.7919 16.6402 41.2802C15.8158 41.1889 15.5181 41.0196 15.2602 40.5202C15.1626 36.6013 15.182 33.1467 15.6802 26.3802C16.0391 25.2777 15.9102 24.8045 15.6804 23.9609L15.6802 23.9602C17.9788 23.9431 18.1699 22.6551 17.7402 19.4602C19.4541 20.4966 20.4224 20.5179 22.1602 19.6802C24.4478 21.394 24.9531 20.343 25.8202 18.3802C27.4688 20.4 28.5272 20.2429 30.6002 18.1802Z" fill="url(#paint0_linear_56_48)"/>
<path d="M14.0003 23.7603C13.243 23.9051 12.9353 23.6786 12.4603 23.0803L12.0203 30.0403C11.8512 37.7943 11.817 40.918 12.0203 41.1403C12.4607 42.7669 13.3963 43.1071 15.7803 43.1203C22.4312 44.0755 26.124 44.0201 32.6403 42.8003C35.1666 41.5491 35.464 40.5562 35.3603 38.6203C35.3677 35.7443 35.2691 34.8483 35.0203 33.7603V29.0003C34.9245 25.4586 34.7536 24.0689 34.3603 22.0403L33.1003 21.3003C34.0288 29.9027 34.4864 37.5854 34.0803 39.3203C34.164 41.7367 33.5381 42.4577 31.4203 42.8003C25.0445 43.7772 21.6214 43.7728 15.7803 42.8003C14.3775 42.595 13.8588 42.2114 13.3203 41.1403C12.9004 41.0207 12.9504 38.8159 13.3203 32.7803L14.0003 23.7603Z" fill="black" stroke="black" stroke-width="0.32"/>
<path d="M38.5602 18.02C37.8535 19.3835 37.1561 19.8365 35.0802 19.78L35.5602 21.42L33.7202 21.16L34.7202 35.64H35.9002C39.2124 35.4402 40.9845 33.9196 43.0402 30.8C44.6993 26.1101 44.8868 24.0464 43.8402 21.42C42.3672 19.2735 41.1924 18.5552 38.5602 18.02Z" fill="black" stroke="black" stroke-width="0.32"/>
<path d="M37.8602 20.7402C36.9661 22.0462 36.2936 22.3087 34.9202 22.3002L35.6402 32.8202C36.2339 33.7989 36.782 33.7904 38.0202 33.1002C40.1836 31.2945 41.056 30.0765 41.7402 27.3802C42.334 22.9256 40.8343 21.661 37.8602 20.7402Z" fill="white" stroke="black" stroke-width="0.32"/>
<path d="M39.6803 18.7202C39.3254 18.8294 39.2378 18.939 39.3003 19.2202C39.6803 20.1002 40.9603 20.1402 41.1203 20.3002C41.2803 20.4602 42.413 21.3557 42.9403 22.2002C42.7971 21.3306 42.5952 20.8984 42.0003 20.2402C41.3076 19.3612 40.762 19.0713 39.6803 18.7202Z" fill="white" stroke="black" stroke-width="0.32"/>
<defs>
<linearGradient id="paint0_linear_56_48" x1="25.0204" y1="18.1802" x2="25.0204" y2="41.6244" gradientUnits="userSpaceOnUse">
<stop stop-color="#56A142"/>
<stop offset="1" stop-color="#203B18"/>
</linearGradient>
</defs>
</svg>
