<svg width="54" height="50" viewBox="0 0 54 50" fill="none" xmlns="http://www.w3.org/2000/svg">
<path d="M14.6401 22.868C12.8043 22.5344 12.6252 21.4598 12.7801 19.048C11.2244 19.0909 10.0201 17.628 9.88011 16.668C9.74011 15.708 10.6744 13.9383 12.7801 13.5681C9.94011 11.8481 11.8347 9.60259 13.5801 9.84812C13.718 7.78255 14.637 6.42697 16.4601 5.7681C18.5201 4.46812 21.1401 8.38811 21.8001 8.38811C22.4601 8.38812 22.6601 5.39994 25.0001 6.91994C27.3401 8.43994 28.4801 5.28812 30.4001 5.5281C32.3201 5.76809 32.6684 7.07531 32.3201 8.82812C37.3758 7.2364 36.2872 11.7819 35.7201 12.448C35.153 13.1142 38.0401 13.0083 38.2401 13.8681C38.4401 14.728 38.8601 16.5599 37.7601 17.0281C36.6601 17.4963 34.4601 15.6999 34.1001 15.868C33.7401 16.036 33.3204 17.2853 32.3201 17.628C31.0955 17.3883 30.9401 14.6199 30.8601 14.728C30.7801 14.836 28.9201 17.8999 27.8401 17.828C26.7601 17.756 25.2801 14.9999 25.3001 15.308C25.3201 15.616 25.3401 16.916 25.0001 17.628C24.6601 18.3399 25.071 17.0799 24.6601 17.128C24.2492 17.176 23.6201 18.708 23.6201 18.708C22.6867 18.5115 22.6967 17.7517 22.8201 16.268C22.4495 17.9011 19.6601 19.3599 19.8201 18.708C19.9801 18.056 21.2601 17.2081 20.6001 17.628C19.9401 18.0478 18.8881 18.5911 17.4201 17.348C17.4201 17.348 18.1601 16.4681 17.7401 16.668C17.3201 16.8678 15.7401 17.6478 15.9001 17.828C16.0601 18.0081 16.4601 17.628 16.4601 17.628C16.6248 20.8512 17.0073 23.0485 14.6401 22.868Z" fill="white"/>
<path d="M17.2001 9.32812C16.7201 8.16812 18.0601 7.30811 18.6601 8.38811M12.7801 19.048C12.6252 21.4598 12.8043 22.5344 14.6401 22.868C17.0073 23.0485 16.6248 20.8512 16.4601 17.628C16.4601 17.628 16.0601 18.0081 15.9001 17.828C15.7401 17.6478 17.3201 16.8678 17.7401 16.668C18.1601 16.4681 17.4201 17.348 17.4201 17.348C18.8881 18.5911 19.9401 18.0478 20.6001 17.628C21.2601 17.2081 19.9801 18.056 19.8201 18.708C19.6601 19.3599 22.4495 17.9011 22.8201 16.268C22.6967 17.7517 22.6867 18.5115 23.6201 18.708C23.6201 18.708 24.2492 17.176 24.6601 17.128C25.071 17.0799 24.6601 18.3399 25.0001 17.628C25.3401 16.916 25.3201 15.616 25.3001 15.308C25.2801 14.9999 26.7601 17.756 27.8401 17.828C28.9201 17.8999 30.7801 14.836 30.8601 14.728C30.9401 14.6199 31.0955 17.3883 32.3201 17.628C33.3204 17.2853 33.7401 16.036 34.1001 15.868C34.4601 15.6999 36.6601 17.4963 37.7601 17.0281C38.8601 16.5599 38.4401 14.728 38.2401 13.8681C38.0401 13.0083 35.153 13.1142 35.7201 12.448C36.2872 11.7819 37.3758 7.2364 32.3201 8.82812C32.6684 7.07531 32.3201 5.76809 30.4001 5.5281C28.4801 5.28812 27.3401 8.43994 25.0001 6.91994C22.6601 5.39994 22.4601 8.38812 21.8001 8.38811C21.1401 8.38811 18.5201 4.46812 16.4601 5.7681C14.637 6.42697 13.718 7.78255 13.5801 9.84812C11.8347 9.60259 9.94011 11.8481 12.7801 13.5681C10.6744 13.9383 9.74011 15.708 9.88011 16.668C10.0201 17.628 11.2244 19.0909 12.7801 19.048Z" stroke="black" stroke-width="0.6"/>
<path d="M13.7 15.28C14.54 14.2 15.7799 14.68 16.04 15.46" stroke="black" stroke-width="0.6" stroke-linecap="round"/>
<path d="M15.2333 13.8195C15.8565 12.6001 17.1675 12.8371 17.5706 13.554" stroke="black" stroke-width="0.6" stroke-linecap="round"/>
<path d="M16.9813 9.0701C17.3858 7.76302 18.7154 7.77421 19.2341 8.41217" stroke="black" stroke-width="0.6" stroke-linecap="round"/>
<path d="M24.6759 11.77C25.8934 11.1459 26.8147 12.1047 26.7209 12.9216" stroke="black" stroke-width="0.6" stroke-linecap="round"/>
<path d="M32.8982 10.9163C33.8937 10.4678 34.6923 11.2454 34.64 11.88" stroke="black" stroke-width="0.6" stroke-linecap="round"/>
<path d="M34.9781 13.9964C35.9735 13.5479 36.7721 14.3255 36.7198 14.9601" stroke="black" stroke-width="0.6" stroke-linecap="round"/>
<path d="M21.1679 11.8786C23.0027 10.6737 24.2359 12.1405 24.0113 13.511" stroke="black" stroke-width="0.6" stroke-linecap="round"/>
<path d="M26.2079 8.8635C28.0427 7.65858 29.2759 9.12537 29.0513 10.4959" stroke="black" stroke-width="0.6" stroke-linecap="round"/>
<path d="M30.1428 11.1393C31.8643 9.77737 33.222 11.1298 33.119 12.5147" stroke="black" stroke-width="0.6" stroke-linecap="round"/>
<path d="M30.5065 18.04C31.0726 19.0508 31.6943 19.2851 33.4465 19C34.4839 19.3791 34.8784 19.7012 34.6865 20.8C33.3723 20.3707 32.5925 20.3749 31.1265 20.8C31.6229 28.4519 31.7939 32.7401 31.8865 40.38C27.3239 41.5571 24.4651 41.7637 18.7065 41.14C18.3103 35.3366 18.0849 32.4832 17.6465 31.86C16.6381 32.9158 16.5559 35.6517 16.5465 41.14C15.722 41.0488 15.4243 40.8795 15.1665 40.38C15.0688 36.4612 15.0883 33.0066 15.5865 26.24C15.9453 25.1375 15.8165 24.6644 15.5867 23.8208L15.5865 23.82C17.8851 23.803 18.0762 22.515 17.6465 19.32C19.3603 20.3565 20.3286 20.3778 22.0665 19.54C24.3541 21.2538 24.8594 20.2028 25.7265 18.24C27.3751 20.2599 28.4335 20.1027 30.5065 18.04Z" fill="url(#paint0_linear_56_47)"/>
<path d="M14 23.7603C13.2427 23.9051 12.935 23.6786 12.46 23.0803L12.02 30.0403C11.851 37.7943 11.8168 40.918 12.02 41.1403C12.4604 42.7669 13.396 43.1071 15.78 43.1203C22.4309 44.0755 26.1238 44.0201 32.64 42.8003C35.1664 41.5491 35.4638 40.5562 35.36 38.6203C35.3674 35.7443 35.2688 34.8483 35.02 33.7603V29.0003C34.9242 25.4586 34.7534 24.0689 34.36 22.0403L33.1 21.3003C34.0286 29.9027 34.4862 37.5854 34.08 39.3203C34.1638 41.7367 33.5379 42.4577 31.42 42.8003C25.0443 43.7772 21.6211 43.7728 15.78 42.8003C14.3772 42.595 13.8586 42.2114 13.32 41.1403C12.9002 41.0207 12.9502 38.8159 13.32 32.7803L14 23.7603Z" fill="black" stroke="black" stroke-width="0.32"/>
<path d="M38.56 18.02C37.8533 19.3835 37.1559 19.8365 35.08 19.78L35.56 21.42L33.72 21.16L34.72 35.64H35.9C39.2121 35.4402 40.9843 33.9196 43.04 30.8C44.6991 26.1101 44.8866 24.0464 43.84 21.42C42.367 19.2735 41.1921 18.5552 38.56 18.02Z" fill="black" stroke="black" stroke-width="0.32"/>
<path d="M37.8599 20.7402C36.9659 22.0462 36.2933 22.3087 34.9199 22.3002L35.6399 32.8202C36.2336 33.7989 36.7817 33.7904 38.0199 33.1002C40.1834 31.2945 41.0558 30.0765 41.7399 27.3802C42.3337 22.9256 40.8341 21.661 37.8599 20.7402Z" fill="white" stroke="black" stroke-width="0.32"/>
<path d="M39.6801 18.7202C39.3252 18.8294 39.2376 18.939 39.3001 19.2202C39.6801 20.1002 40.9601 20.1402 41.1201 20.3002C41.2801 20.4602 42.4128 21.3557 42.9401 22.2002C42.7968 21.3306 42.595 20.8984 42.0001 20.2402C41.3073 19.3612 40.7618 19.0713 39.6801 18.7202Z" fill="white" stroke="black" stroke-width="0.32"/>
<defs>
<linearGradient id="paint0_linear_56_47" x1="24.9266" y1="18.04" x2="24.9266" y2="41.4843" gradientUnits="userSpaceOnUse">
<stop stop-color="#E9CB1C"/>
<stop offset="1" stop-color="#D28302"/>
</linearGradient>
</defs>
</svg>
