<svg width="54" height="50" viewBox="0 0 54 50" fill="none" xmlns="http://www.w3.org/2000/svg">
<path d="M14.0402 23.3084C12.2045 22.9749 12.0254 21.9003 12.1803 19.4884C10.6245 19.5314 9.42026 18.0684 9.28026 17.1084C9.14026 16.1484 10.0746 14.3787 12.1803 14.0085C9.34026 12.2885 11.2348 10.043 12.9802 10.2885C13.1181 8.22298 14.0372 6.8674 15.8602 6.20853C17.9202 4.90855 20.5403 8.82854 21.2003 8.82854C21.8603 8.82855 22.0603 5.84037 24.4002 7.36037C26.7402 8.88037 27.8802 5.72855 29.8002 5.96853C31.7202 6.20852 32.0685 7.51574 31.7202 9.26855C36.776 7.67683 35.6873 12.2223 35.1202 12.8885C34.5532 13.5546 37.4403 13.4487 37.6403 14.3085C37.8403 15.1684 38.2603 17.0004 37.1603 17.4685C36.0603 17.9367 33.8603 16.1404 33.5002 16.3084C33.1402 16.4764 32.7206 17.7257 31.7202 18.0684C30.4957 17.8287 30.3403 15.0604 30.2602 15.1684C30.1802 15.2764 28.3203 18.3404 27.2402 18.2684C26.1602 18.1964 24.6803 15.4404 24.7002 15.7484C24.7202 16.0564 24.7402 17.3564 24.4002 18.0684C24.0602 18.7804 24.4711 17.5204 24.0602 17.5684C23.6494 17.6164 23.0202 19.1484 23.0202 19.1484C22.0869 18.9519 22.0969 18.1921 22.2202 16.7084C21.8496 18.3415 19.0603 19.8004 19.2202 19.1484C19.3802 18.4964 20.6603 17.6485 20.0002 18.0684C19.3402 18.4883 18.2882 19.0316 16.8202 17.7884C16.8202 17.7884 17.5603 16.9085 17.1402 17.1084C16.7202 17.3082 15.1402 18.0883 15.3002 18.2684C15.4603 18.4485 15.8602 18.0684 15.8602 18.0684C16.0249 21.2917 16.4074 23.4889 14.0402 23.3084Z" fill="white"/>
<path d="M16.6003 9.76855C16.1203 8.60855 17.4603 7.74854 18.0603 8.82854M12.1803 19.4884C12.0254 21.9003 12.2045 22.9749 14.0402 23.3084C16.4074 23.4889 16.0249 21.2917 15.8602 18.0684C15.8602 18.0684 15.4603 18.4485 15.3002 18.2684C15.1402 18.0883 16.7202 17.3082 17.1402 17.1084C17.5603 16.9085 16.8202 17.7884 16.8202 17.7884C18.2882 19.0316 19.3402 18.4883 20.0002 18.0684C20.6603 17.6485 19.3802 18.4964 19.2202 19.1484C19.0603 19.8004 21.8496 18.3415 22.2202 16.7084C22.0969 18.1921 22.0869 18.9519 23.0202 19.1484C23.0202 19.1484 23.6494 17.6164 24.0602 17.5684C24.4711 17.5204 24.0602 18.7804 24.4002 18.0684C24.7402 17.3564 24.7202 16.0564 24.7002 15.7484C24.6803 15.4404 26.1602 18.1964 27.2402 18.2684C28.3203 18.3404 30.1802 15.2764 30.2602 15.1684C30.3403 15.0604 30.4957 17.8287 31.7202 18.0684C32.7206 17.7257 33.1402 16.4764 33.5002 16.3084C33.8603 16.1404 36.0603 17.9367 37.1603 17.4685C38.2603 17.0004 37.8403 15.1684 37.6403 14.3085C37.4403 13.4487 34.5532 13.5546 35.1202 12.8885C35.6873 12.2223 36.776 7.67683 31.7202 9.26855C32.0685 7.51574 31.7202 6.20852 29.8002 5.96853C27.8802 5.72855 26.7402 8.88037 24.4002 7.36037C22.0603 5.84037 21.8603 8.82855 21.2003 8.82854C20.5403 8.82854 17.9202 4.90855 15.8602 6.20853C14.0372 6.8674 13.1181 8.22298 12.9802 10.2885C11.2348 10.043 9.34026 12.2885 12.1803 14.0085C10.0746 14.3787 9.14026 16.1484 9.28026 17.1084C9.42026 18.0684 10.6245 19.5314 12.1803 19.4884Z" stroke="black" stroke-width="0.6"/>
<path d="M13.1001 15.72C13.9401 14.6399 15.1801 15.1199 15.4401 15.9" stroke="black" stroke-width="0.6" stroke-linecap="round"/>
<path d="M14.6332 14.2595C15.2564 13.0401 16.5674 13.2771 16.9705 13.994" stroke="black" stroke-width="0.6" stroke-linecap="round"/>
<path d="M16.3814 9.50955C16.7859 8.20248 18.1155 8.21366 18.6342 8.85163" stroke="black" stroke-width="0.6" stroke-linecap="round"/>
<path d="M24.0763 12.2095C25.2938 11.5853 26.215 12.5441 26.1213 13.361" stroke="black" stroke-width="0.6" stroke-linecap="round"/>
<path d="M32.2984 11.3562C33.2938 10.9078 34.0924 11.6854 34.0401 12.3199" stroke="black" stroke-width="0.6" stroke-linecap="round"/>
<path d="M34.3785 14.4363C35.3739 13.9878 36.1725 14.7654 36.1202 15.4" stroke="black" stroke-width="0.6" stroke-linecap="round"/>
<path d="M20.5682 12.3186C22.4031 11.1137 23.6363 12.5804 23.4117 13.951" stroke="black" stroke-width="0.6" stroke-linecap="round"/>
<path d="M25.608 9.30344C27.4429 8.09852 28.6761 9.56531 28.4515 10.9358" stroke="black" stroke-width="0.6" stroke-linecap="round"/>
<path d="M29.5427 11.5793C31.2642 10.2173 32.6219 11.5697 32.5189 12.9547" stroke="black" stroke-width="0.6" stroke-linecap="round"/>
<path d="M29.9066 18.48C30.4728 19.4908 31.0944 19.725 32.8466 19.44C33.884 19.8191 34.2785 20.1412 34.0866 21.24C32.7724 20.8106 31.9926 20.8148 30.5266 21.24C31.023 28.8918 31.194 33.18 31.2866 40.82C26.724 41.997 23.8652 42.2036 18.1066 41.58C17.7105 35.7765 17.485 32.9231 17.0466 32.3C16.0382 33.3557 15.956 36.0917 15.9466 41.58C15.1222 41.4887 14.8244 41.3194 14.5666 40.82C14.4689 36.9011 14.4884 33.4465 14.9866 26.68C15.3455 25.5775 15.2166 25.1043 14.9868 24.2607L14.9866 24.26C17.2852 24.2429 17.4763 22.9549 17.0466 19.76C18.7605 20.7964 19.7288 20.8177 21.4666 19.98C23.7542 21.6938 24.2595 20.6428 25.1266 18.68C26.7752 20.6998 27.8336 20.5427 29.9066 18.48Z" fill="url(#paint0_linear_56_67)"/>
<path d="M13.4002 24.1997C12.6429 24.3446 12.3352 24.1181 11.8602 23.5197L11.4202 30.4797C11.2511 38.2337 11.2169 41.3574 11.4202 41.5797C11.8606 43.2063 12.7962 43.5466 15.1802 43.5597C21.8311 44.5149 25.5239 44.4596 32.0402 43.2397C34.5665 41.9886 34.864 40.9956 34.7602 39.0597C34.7676 36.1838 34.669 35.2878 34.4202 34.1997V29.4397C34.3244 25.8981 34.1535 24.5084 33.7602 22.4797L32.5002 21.7397C33.4287 30.3421 33.8863 38.0248 33.4802 39.7597C33.5639 42.1762 32.938 42.8972 30.8202 43.2397C24.4444 44.2167 21.0213 44.2122 15.1802 43.2397C13.7774 43.0344 13.2587 42.6509 12.7202 41.5797C12.3003 41.4602 12.3503 39.2553 12.7202 33.2197L13.4002 24.1997Z" fill="black" stroke="black" stroke-width="0.32"/>
<path d="M37.9601 18.46C37.2534 19.8235 36.5561 20.2764 34.4801 20.22L34.9601 21.86L33.1201 21.6L34.1201 36.08H35.3001C38.6123 35.8802 40.3845 34.3596 42.4401 31.24C44.0992 26.5501 44.2867 24.4864 43.2401 21.86C41.7671 19.7134 40.5923 18.9951 37.9601 18.46Z" fill="black" stroke="black" stroke-width="0.32"/>
<path d="M37.2601 21.1802C36.366 22.4861 35.6935 22.7486 34.3201 22.7402L35.0401 33.2602C35.6338 34.2389 36.1819 34.2304 37.4201 33.5402C39.5835 31.7345 40.4559 30.5165 41.1401 27.8202C41.7339 23.3655 40.2342 22.101 37.2601 21.1802Z" fill="white" stroke="black" stroke-width="0.32"/>
<path d="M39.0802 19.1602C38.7253 19.2694 38.6377 19.379 38.7002 19.6602C39.0802 20.5402 40.3602 20.5802 40.5202 20.7402C40.6802 20.9002 41.8129 21.7957 42.3402 22.6402C42.197 21.7706 41.9951 21.3384 41.4002 20.6802C40.7075 19.8011 40.1619 19.5112 39.0802 19.1602Z" fill="white" stroke="black" stroke-width="0.32"/>
<defs>
<linearGradient id="paint0_linear_56_67" x1="24.3267" y1="18.48" x2="24.3267" y2="41.9242" gradientUnits="userSpaceOnUse">
<stop stop-color="#C43907"/>
<stop offset="1" stop-color="#D28302"/>
</linearGradient>
</defs>
</svg>
