<svg width="126" height="125" viewBox="0 0 126 125" fill="none" xmlns="http://www.w3.org/2000/svg">
<g clip-path="url(#clip0_41_321)">
<g clip-path="url(#clip1_41_321)">
<path d="M119.746 61.2827C119.746 93.991 93.2681 120.505 60.6076 120.505C27.9471 120.505 1.46917 93.991 1.46917 61.2827C1.46917 28.5744 27.9471 2.06048 60.6076 2.06048C93.2681 2.06048 119.746 28.5744 119.746 61.2827Z" fill="black" stroke="black" stroke-width="1.17272"/>
</g>
<mask id="path-2-inside-1_41_321" fill="white">
<path d="M118.469 61.2829C118.469 93.2843 92.5634 119.227 60.6073 119.227C28.6512 119.227 2.74561 93.2843 2.74561 61.2829C2.74561 29.2814 28.6512 3.33911 60.6073 3.33911C92.5634 3.33911 118.469 29.2814 118.469 61.2829ZM5.53829 61.2829C5.53829 91.7398 30.1935 116.43 60.6073 116.43C91.021 116.43 115.676 91.7398 115.676 61.2829C115.676 30.826 91.021 6.13576 60.6073 6.13576C30.1935 6.13576 5.53829 30.826 5.53829 61.2829Z"/>
</mask>
<path d="M118.469 61.2829C118.469 93.2843 92.5634 119.227 60.6073 119.227C28.6512 119.227 2.74561 93.2843 2.74561 61.2829C2.74561 29.2814 28.6512 3.33911 60.6073 3.33911C92.5634 3.33911 118.469 29.2814 118.469 61.2829ZM5.53829 61.2829C5.53829 91.7398 30.1935 116.43 60.6073 116.43C91.021 116.43 115.676 91.7398 115.676 61.2829C115.676 30.826 91.021 6.13576 60.6073 6.13576C30.1935 6.13576 5.53829 30.826 5.53829 61.2829Z" fill="white" stroke="white" stroke-width="1.31317" mask="url(#path-2-inside-1_41_321)"/>
<g clip-path="url(#clip2_41_321)">
<path d="M112.055 11.531L112.187 13.1531L93.8921 27.8763L92.7075 29.9974L81.9148 38.6067L79.0192 35.737L89.5487 26.8781C90.3498 26.5085 90.8131 26.3184 91.6546 26.0047L109.686 11.6558L112.055 11.531Z" fill="white" stroke="black" stroke-width="0.1728"/>
<path d="M96.7369 22.0229V24.0536H98.7676" stroke="black" stroke-width="0.1728"/>
<path d="M95.4367 26.5921L95.7217 24.8999H93.0141" stroke="black" stroke-width="0.1728"/>
</g>
<g clip-path="url(#clip3_41_321)">
<path d="M17.6721 10.8542L17.5405 12.4763L35.8354 27.1995L37.02 29.3206L47.8127 37.93L50.7083 35.0602L40.1788 26.2013C39.3777 25.8318 38.9144 25.6416 38.073 25.3279L20.0413 10.979L17.6721 10.8542Z" fill="white" stroke="black" stroke-width="0.1728"/>
<path d="M29.5986 18.5232V20.5539H27.5679" stroke="black" stroke-width="0.1728"/>
<path d="M31.2781 23.8799L31.0234 21.6335H33.4426" stroke="black" stroke-width="0.1728"/>
</g>
<g clip-path="url(#clip4_41_321)">
<path d="M76.3265 99.8355C78.9279 98.7699 81.0056 97.7233 83.4444 96.1757L80.3868 91.872C79.129 92.8878 77.5637 93.6399 74.359 95.0036L76.3265 99.8355Z" fill="white"/>
<path d="M33.4628 90.8422C35.381 92.8972 37.0958 94.4693 39.4073 96.2016L42.3483 91.8174C40.9527 91.0011 39.6948 89.8039 37.2841 87.2903L33.4628 90.8422Z" fill="white"/>
<mask id="path-11-inside-2_41_321" fill="white">
<path d="M102.491 62.3828C102.491 84.8598 84.2694 103.081 61.7924 103.081C39.3154 103.081 21.0942 84.8598 21.0942 62.3828C21.0942 39.9058 39.3154 21.6846 61.7924 21.6846C84.2694 21.6846 102.491 39.9058 102.491 62.3828ZM23.7387 62.3828C23.7387 83.3993 40.776 100.436 61.7924 100.436C82.8089 100.436 99.8461 83.3993 99.8461 62.3828C99.8461 41.3663 82.8089 24.3291 61.7924 24.3291C40.776 24.3291 23.7387 41.3663 23.7387 62.3828Z"/>
</mask>
<path d="M102.491 62.3828C102.491 84.8598 84.2694 103.081 61.7924 103.081C39.3154 103.081 21.0942 84.8598 21.0942 62.3828C21.0942 39.9058 39.3154 21.6846 61.7924 21.6846C84.2694 21.6846 102.491 39.9058 102.491 62.3828ZM23.7387 62.3828C23.7387 83.3993 40.776 100.436 61.7924 100.436C82.8089 100.436 99.8461 83.3993 99.8461 62.3828C99.8461 41.3663 82.8089 24.3291 61.7924 24.3291C40.776 24.3291 23.7387 41.3663 23.7387 62.3828Z" fill="white" stroke="black" stroke-width="0.338447" mask="url(#path-11-inside-2_41_321)"/>
<path d="M99.6054 64.8613L94.661 64.4997C94.5691 66.2834 94.4 67.1598 94.1001 69.1226L99.0139 70.1136C99.5142 68.1169 99.6389 66.9659 99.6054 64.8613Z" fill="white" stroke="black" stroke-width="0.169223"/>
<path d="M96.2363 41.5937C94.5374 38.9077 93.4758 37.5118 91.4193 35.2224L90.1369 36.1919C92.2739 38.5902 93.3155 39.9899 94.954 42.5633L96.2363 41.5937Z" fill="black"/>
<path d="M32.3908 35.0039C30.2464 37.3496 29.1789 38.741 27.5112 41.3274L28.7839 42.3095C30.5356 39.6169 31.6118 38.2438 33.6636 35.986L32.3908 35.0039Z" fill="black"/>
<path d="M101.617 56.9258C101.162 53.7802 100.763 52.0726 99.8201 49.1431L98.2537 49.5048C99.2256 52.5665 99.6051 54.2694 100.05 57.2874L101.617 56.9258Z" fill="black"/>
<path d="M90.5384 90.3232C92.7424 88.0333 93.8453 86.6698 95.5789 84.1271L94.3318 83.1126C92.5115 85.7594 91.4003 87.1044 89.2913 89.3087L90.5384 90.3232Z" fill="black"/>
<path d="M78.7841 98.9409C81.6319 97.5299 83.1305 96.619 85.621 94.8112L84.7898 93.4351C82.1826 95.3116 80.6824 96.2023 77.9529 97.5649L78.7841 98.9409Z" fill="black"/>
<path d="M44.5119 98.8443C47.4127 100.143 49.0691 100.719 52.0485 101.489L52.5809 99.9726C49.4742 99.1559 47.8324 98.5656 45.0443 97.3274L44.5119 98.8443Z" fill="black"/>
<path d="M32.1177 89.4696C34.2708 91.8074 35.5655 92.9903 37.9993 94.8737L39.087 93.69C36.5545 91.7137 35.2788 90.5236 33.2054 88.2858L32.1177 89.4696Z" fill="black"/>
<path d="M24.038 48.8116C22.9859 51.8106 22.5499 53.5093 22.0307 56.5426L23.5867 56.9466C24.1415 53.7826 24.5927 52.0973 25.5941 49.2156L24.038 48.8116Z" fill="black"/>
<path d="M26.467 48.3993C25.4769 51.0304 24.8293 53.2648 24.3029 56.105L29.5369 56.7945C29.649 55.1817 30.1635 53.523 31.346 50.2471L26.467 48.3993Z" fill="white"/>
<path d="M34.6897 42.9735C33.3229 45.43 32.3533 47.5448 31.4144 50.2764L36.4898 51.7292C36.8381 50.1504 37.5913 48.5857 39.2433 45.5196L34.6897 42.9735Z" fill="white"/>
<path d="M92.6899 51.5894C91.7849 48.9279 90.867 46.7902 89.4709 44.2615L84.9888 47.0511C85.926 48.3685 86.5813 49.9767 87.747 53.2586L92.6899 51.5894Z" fill="white"/>
<path d="M93.942 43.1548C92.4192 40.7917 91.0108 38.9401 89.0438 36.8249L85.3709 40.617C86.5993 41.6682 87.6246 43.0698 89.5506 45.9716L93.942 43.1548Z" fill="white"/>
<path d="M33.7058 36.8161C31.8749 38.9493 30.5016 40.8271 29.0348 43.3155L33.7166 45.755C34.374 44.2779 35.4252 42.8956 37.6576 40.2223L33.7058 36.8161Z" fill="white"/>
<path d="M24.6901 70.8333L29.4473 69.1908C29.1589 67.4282 28.9828 65.672 28.8597 63.6903L23.8475 63.7638C23.782 65.8212 24.211 68.7837 24.6901 70.8333Z" fill="white"/>
<path d="M21.6619 63.1467C21.7713 66.323 21.9823 68.064 22.6006 71.0787L24.197 70.8898C23.5643 67.7404 23.3724 66.0063 23.2584 62.9577L21.6619 63.1467Z" fill="black"/>
<path d="M29.1811 56.5728C28.8037 59.3585 28.6717 61.6812 28.793 64.5672L34.0488 64.0701C33.7978 62.4729 33.9288 60.7412 34.3496 57.284L29.1811 56.5728Z" fill="white"/>
<path d="M94.7583 66.1241C94.8403 63.3142 94.7271 60.9905 94.3025 58.1334L89.1282 59.1812C89.5461 60.743 89.5981 62.4788 89.5437 65.9611L94.7583 66.1241Z" fill="white"/>
<path d="M89.1298 59.1735C88.2141 56.5157 87.2875 54.3817 85.8813 51.8587L81.4105 54.6662C82.353 55.9798 83.0147 57.5854 84.1936 60.8626L89.1298 59.1735Z" fill="white"/>
<path d="M65.8024 102.939C68.9449 102.464 70.6499 102.053 73.5732 101.091L73.2013 99.5274C70.146 100.519 68.4456 100.91 65.4305 101.375L65.8024 102.939Z" fill="black"/>
<path d="M24.5325 78.5364C26.0205 81.3449 26.9718 82.8181 28.8467 85.2585L30.1996 84.3902C28.2529 81.835 27.3217 80.3596 25.8855 77.6681L24.5325 78.5364Z" fill="black"/>
<path d="M89.4012 88.4482C91.2854 86.3619 92.7057 84.5194 94.2348 82.0688L89.6161 79.5119C88.9216 80.9719 87.8358 82.3273 85.5367 84.9433L89.4012 88.4482Z" fill="white"/>
<path d="M80.4859 91.0489C82.474 89.0613 83.9864 87.2936 85.6383 84.9241L81.1559 82.1352C80.3879 83.5579 79.2345 84.8561 76.8051 87.3516L80.4859 91.0489Z" fill="white"/>
<path d="M89.29 79.5183C90.7456 77.1133 91.7918 75.0354 92.8299 72.3399L87.8109 70.7026C87.4051 72.2676 86.5953 73.8039 84.8324 76.8075L89.29 79.5183Z" fill="white"/>
<path d="M99.454 57.3949C99.0336 54.6153 98.5078 52.3491 97.5805 49.6135L92.6761 51.5671C93.3657 53.0294 93.7265 54.7282 94.2939 58.1644L99.454 57.3949Z" fill="white"/>
<path d="M31.9069 81.3844C33.5581 83.6596 35.0668 85.4304 37.1479 87.4336L40.6053 83.4439C39.3206 82.4624 38.2193 81.1196 36.1357 78.3289L31.9069 81.3844Z" fill="white"/>
<path d="M30.7223 72.5851C32.3735 74.8603 33.8823 76.6311 35.9634 78.6342L39.4207 74.6446C38.136 73.6631 37.0347 72.3203 34.9511 69.5296L30.7223 72.5851Z" fill="white"/>
<path d="M40.5373 83.4154C42.1885 85.6906 43.6972 87.4614 45.7783 89.4646L49.2357 85.4749C47.951 84.4934 46.8497 83.1506 44.766 80.3599L40.5373 83.4154Z" fill="white"/>
<path d="M42.3805 91.7955C44.6492 93.4555 46.6279 94.6791 49.2225 95.9485L51.2916 91.0916C49.768 90.5507 48.3083 89.6099 45.47 87.5916L42.3805 91.7955Z" fill="white"/>
</g>
<path d="M62.3051 18.4695C50.6067 18.7802 46.0636 21.6491 39.4624 27.1152C32.9749 32.7956 32.4898 37.7783 32.4339 45.8085C32.3377 53.4915 36.199 64.0346 36.1992 64.7356C36.1993 65.4366 34.6932 64.2682 34.6932 64.2682C34.1123 65.5622 33.9598 66.3624 34.1911 68.0069C35.231 70.1805 38.4374 72.1393 41.9727 75.0169C43.4316 76.2419 43.292 77.4553 42.7257 85.7656C42.7859 86.2095 42.0907 87.0878 41.2196 88.336C40.5868 88.5856 41.2622 89.5926 42.7257 91.6073C46.0436 93.5017 47.1301 94.0502 49.5032 96.5143L56.7827 103.758C58.4463 102.695 66.1272 102.38 71.0908 103.758L79.6254 93.0093C80.5925 91.8244 81.9683 91.2672 83.8927 90.2053L84.6457 85.7656C81.005 80.3021 82.5378 75.7896 84.6457 71.2783C85.6224 69.8711 86.5676 69.2124 88.16 68.0069C89.623 66.0323 89.3784 65.7735 89.6661 64.7356C89.4955 63.5774 89.1641 62.6326 87.658 63.0999C86.1519 63.5672 88.4252 56.9649 89.1641 52.5849C92.1679 36.1379 88.662 31.7885 85.3988 28.0498C82.1356 24.3112 71.3921 18.5976 62.3051 18.4695Z" fill="white" stroke="black" stroke-width="0.50767"/>
<path d="M82.7276 52.4599C82.7276 52.4599 87.5698 51.5 86.0407 50.0602M86.0407 50.0602C87.1495 50.8687 86.3755 59.8266 88.0795 60.8588M86.0407 50.0602C84.8196 48.9105 83.436 46.2304 82.9281 45.1973M86.5504 33.2624C86.5535 34.534 85.6787 36.278 84.7383 38.0618M86.5504 33.2795V33.0225L86.8053 33.2624M84.7383 38.0618C83.3662 40.6646 81.8546 43.3521 82.7276 44.7809C82.7276 44.7809 82.8 44.9367 82.9281 45.1973M84.7383 38.0618C83.3411 39.8745 83.04 41.0721 82.2178 43.1011C82.0534 43.6722 82.5123 44.3011 82.9281 45.1973" stroke="black" stroke-width="0.169223"/>
<path d="M47.1985 79.0542C50.9923 84.2976 53.123 85.9839 53.4674 86.3825C53.8119 86.7811 54.0636 83.9079 53.9788 83.5586C53.6693 81.7199 52.1775 80.6243 50.2805 78.7076C50.0284 77.8737 54.1358 81.3253 54.9035 82.1726C55.6712 83.02 51.4711 78.0931 50.2805 77.668C46.9744 77.1213 41.9591 74.5495 42.2673 74.896C42.5755 75.2425 44.4247 76.975 44.4247 76.975C46.1603 81.8208 47.4528 81.4552 47.8606 89.5021C48.7162 83.4211 46.1624 78.8598 47.1985 79.0542Z" fill="black"/>
<path d="M78.4327 79.5974C74.6388 85.5207 72.7628 86.6123 72.4184 87.0626C72.0739 87.5129 73.608 83.5147 73.6927 83.1202C74.0023 81.043 73.4535 81.3711 75.3506 79.2059C75.6027 78.2638 71.4951 82.163 70.7273 83.1202C69.9596 84.0773 74.1599 78.5118 75.3506 78.0316C78.6568 77.4139 83.6724 74.5087 83.3642 74.9001C83.056 75.2916 81.2067 77.2487 81.2067 77.2487C79.471 82.7228 77.6687 80.4122 77.2609 89.5023C76.4052 82.633 79.4689 79.3778 78.4327 79.5974Z" fill="black"/>
<path d="M61.873 52.1106C61.8821 52.3229 61.8492 52.501 61.7496 52.6076C61.7804 52.4173 61.821 52.2522 61.873 52.1106Z" fill="#D9D9D9"/>
<path d="M52.8296 55.948C52.8296 55.948 54.1676 54.5164 54.6136 54.0392C55.0596 53.562 55.9516 53.0848 56.3976 52.6076C56.8436 52.1304 56.971 53.0848 57.417 53.0848C57.863 53.0848 59.5196 51.6532 59.9656 51.6532C60.4116 51.6532 60.8576 49.7444 61.3036 50.2216C61.3036 50.2216 62.1956 52.1304 61.7496 52.6076M61.7496 52.6076C60.9147 53.3589 61.3162 53.7316 62.0044 54.4645C63.0573 54.8654 62.8046 55.3427 62.5142 56.1442C61.6469 57.2121 60.943 57.5884 61.3036 58.334C61.9764 59.1075 62.4741 59.482 62.1956 60.72L61.3036 63.5833M61.7496 52.6076C61.9642 51.2841 62.6453 51.185 64.4256 51.6532C64.7647 50.9191 65.0757 51.5082 66.2096 53.0848C66.2096 53.0848 67.5476 53.562 67.9936 53.562C68.4396 53.562 70.6696 55.4708 70.6696 55.4708" stroke="black" stroke-width="0.169223"/>
<path d="M40.8514 56.1443C40.8514 56.1443 36.009 55.1844 37.5382 53.7446M37.5382 53.7446C36.4294 54.5531 37.2034 63.511 35.4994 64.5432M37.5382 53.7446C38.4566 52.8798 39.467 51.1494 40.1276 49.9051M36.5189 37.4268C36.2527 40.3081 37.8169 42.3946 39.1789 44.1459M39.1789 44.1459C40.4258 45.7492 41.5032 47.0714 40.8514 48.4653C40.8514 48.4653 40.5668 49.0777 40.1276 49.9051M39.1789 44.1459C40.7467 45.3207 41.469 46.4989 41.3611 48.2253C40.6082 49.2792 40.4774 49.4424 40.1276 49.9051" stroke="black" stroke-width="0.169223"/>
<path d="M52.8226 91.0419C53.0413 89.6841 53.3215 88.3372 53.244 88.0812C53.2234 87.9848 53.204 87.8951 53.1854 87.8121M52.8226 91.0419C52.8226 91.0419 53.0749 91.3643 53.3574 91.6935M52.8226 91.0419C52.7741 91.0571 52.7007 91.0393 52.6118 90.9983M53.1854 87.8121C53.067 87.2846 52.9798 87.0254 52.8226 87.0046C52.5757 87.0046 52.4373 87.0046 52.1904 87.0046C51.7696 87.0167 51.7415 87.2675 51.5583 87.5429C51.4433 88.323 51.2918 88.315 51.3476 89.9653C51.3742 89.9976 51.4101 90.0373 51.4533 90.0821M53.1854 87.8121H54.0868L54.5082 88.3504M54.5082 88.3504C54.6195 88.9137 54.2975 92.3877 54.0868 92.3877M54.5082 88.3504C54.5082 88.3504 54.9296 88.0812 55.1403 88.0812C55.351 88.0812 55.7724 88.8887 55.7724 88.8887M54.0868 92.3877L54.4236 92.9386M54.0868 92.3877C53.9792 92.3877 53.652 92.0369 53.3574 91.6935M55.7724 88.8887C55.7724 88.8887 55.641 93.0345 55.5617 93.4643M55.7724 88.8887C55.9858 88.5341 56.1725 88.4224 56.6152 88.3504C57.12 88.3588 57.3904 88.9442 57.8795 89.6962M55.5617 93.4643C55.4824 93.8941 54.7844 93.5229 54.7604 93.4895M55.5617 93.4643C55.7612 93.7145 55.9299 93.9405 56.0812 94.1205M54.7189 93.4643C54.7189 93.4643 54.7341 93.474 54.7604 93.4895M54.7604 93.4895L54.4236 92.9386M57.8795 89.6962C57.4186 90.7128 57.5061 91.6911 57.4581 93.1951C57.4462 93.3053 58.0902 94.5409 57.8795 94.5409M57.8795 89.6962C58.6064 88.8593 59.0474 88.7134 59.9865 89.9653M57.8795 94.5409C58.6224 94.706 59.2466 94.7282 59.625 94.5056M57.8795 94.5409C57.8462 94.5409 57.7919 94.5409 57.7241 94.5409M59.9865 89.9653C60.2084 90.2498 60.0685 91.9487 59.9865 94.0026M59.9865 89.9653C61.0355 88.9253 61.5961 88.9684 62.515 90.2345C62.5676 90.2795 62.5994 90.4124 62.6164 90.6133M59.9865 94.0026C60.8402 95.196 61.3761 95.3053 62.405 94.3735M59.9865 94.0026C59.9324 94.2346 59.8072 94.3985 59.625 94.5056M62.515 94.2717C62.5601 92.7843 62.6746 91.3006 62.6164 90.6133M62.515 94.2717C63.4468 94.9367 64.0227 95.098 64.8328 94.7525M62.515 94.2717C62.4777 94.3069 62.4411 94.3409 62.405 94.3735M62.6164 90.6133C62.8592 89.818 63.0417 89.5983 63.3578 89.1578C63.4208 88.9973 63.9069 88.8903 64.6221 89.1578C64.8328 89.249 65.1477 89.7773 65.2542 90.2345M65.2542 90.2345C65.3207 90.8756 65.2756 92.667 65.2542 94.5409M65.2542 90.2345C65.3084 89.3148 65.5426 89.0278 66.3077 88.8887C66.6414 88.8887 66.8316 89.0123 67.1506 89.427M65.2542 94.5409C65.9342 95.8355 66.349 95.8666 67.1506 94.81M65.2542 94.5409C65.1056 94.6251 64.966 94.6957 64.8328 94.7525M67.1506 89.427C67.4413 88.6452 67.6597 88.4049 68.2041 88.3504C68.5884 88.423 68.8113 88.7656 69.1003 89.6962M67.1506 89.427C67.2465 89.4027 67.1793 91.945 67.1553 94.2717M67.1506 94.81C67.1518 94.6328 67.1534 94.4529 67.1553 94.2717M67.1506 94.81C67.236 96.4155 66.5741 97.8417 66.5184 98.8473M69.2576 94.2717C68.498 94.8831 68.032 94.8426 67.1553 94.2717M69.2576 94.2717C69.2601 94.1809 69.2627 94.0912 69.2652 94.0026M69.2576 94.2717C69.2576 94.2717 68.6255 98.0398 68.6255 98.309M69.1003 89.6962C69.1503 89.8574 69.2024 90.0363 69.2576 90.2345C69.382 90.5887 69.3219 92.0192 69.2652 94.0026M69.1003 89.6962C69.242 89.073 69.3533 88.7422 69.8897 88.3504C70.4555 88.1792 70.5925 88.9309 70.7326 90.7728V93.4643M70.7326 93.4643C71.4164 93.4268 71.639 93.2509 71.7861 92.6568M70.7326 93.4643C70.7169 93.6637 70.6497 93.797 70.5219 93.8829M69.2652 94.0026C69.8971 94.0388 70.3004 94.0318 70.5219 93.8829M70.5219 88.8887C70.812 87.7984 71.0604 87.5578 71.7861 88.3504M71.7861 88.3504C72.0274 88.944 71.8795 90.5532 71.7861 92.6568M71.7861 88.3504C71.7861 88.3504 72.6289 87.5429 72.8396 87.5429C73.0503 87.5429 72.8396 92.1185 72.8396 92.1185M71.7861 92.6568C71.9668 92.6028 72.1196 92.555 72.2479 92.5114M72.8396 92.1185C73.0676 92.068 73.2091 92.7036 73.4717 94.2717C73.5157 94.488 72.8396 94.81 72.6289 94.5409M72.8396 92.1185C72.8556 92.2518 72.7127 92.3535 72.2479 92.5114M72.6289 94.5409C72.4182 94.2717 72.2479 92.5114 72.2479 92.5114M72.6289 94.5409C72.863 94.9502 73.0838 95.1652 73.0503 95.6175C73.0501 95.7394 71.5754 96.6941 71.5754 96.4249M71.5754 96.4249C71.5754 96.1558 71.5754 93.1951 71.5754 93.1951M71.5754 96.4249C71.5581 96.7321 70.1004 98.0398 70.1004 97.7707C70.1004 97.6944 70.1343 97.3487 70.1829 96.8925M70.5219 93.8829C70.5219 93.8829 70.3056 95.7402 70.1829 96.8925M70.1829 96.8925C69.7156 98.0567 68.6255 98.5781 68.6255 98.309M68.6255 98.309C68.5202 98.9943 68.3271 99.3268 67.9934 99.9239C67.9372 100.002 67.5425 99.9418 67.1506 99.9239C66.9248 99.8579 66.7749 99.4241 66.5184 98.8473M66.5184 98.8473C65.823 99.5461 65.4578 99.5663 64.8328 98.8473M64.8328 98.8473V94.7525M64.8328 98.8473C63.8938 99.5985 62.515 98.309 62.515 97.7707M62.515 97.7707C62.515 97.2324 62.405 94.3735 62.405 94.3735M62.515 97.7707C61.8302 99.0494 61.352 98.8872 60.408 97.7707M60.408 97.7707L59.625 94.5056M60.408 97.7707C59.5405 99.3627 58.6769 99.0941 58.3009 98.0398M58.3009 98.0398L57.7241 94.5409M58.3009 98.0398C57.1243 98.9813 56.639 98.7751 55.9831 97.5015M57.7241 94.5409C57.3624 94.5409 56.6152 94.5409 56.6152 94.5409C56.4472 94.5124 56.2792 94.3559 56.0812 94.1205M55.9831 97.5015L56.0812 94.1205M55.9831 97.5015C54.9725 97.6181 54.666 97.1306 54.2975 95.8866M54.2975 95.8866L54.4236 92.9386M54.2975 95.8866C53.5371 96.1341 53.0095 95.7464 53.0332 95.3483L53.0944 94.6591M53.3574 91.6935L53.0944 94.6591M53.0944 94.6591C51.9722 94.5492 51.7715 94.1344 51.9797 92.926M51.9797 92.926C52.1864 91.6709 52.3191 91.1761 52.6118 90.9983M51.9797 92.926C51.57 92.9167 51.3925 92.8484 51.1369 92.6568C50.8929 90.9088 51.1913 90.8077 51.4533 90.0821M52.6118 90.9983C52.2774 90.844 51.7234 90.3623 51.4533 90.0821" stroke="black" stroke-width="0.1728"/>
<path d="M56.9174 75.6261C56.7503 77.0581 58.7012 78.7457 58.9562 78.9856C59.2112 79.2256 58.1915 77.3058 58.1915 77.3058C58.1537 77.2044 58.1539 77.152 58.1915 77.0659C58.1915 77.0659 58.9562 77.3058 59.211 77.3058C59.4657 77.3058 58.6024 76.3358 58.1915 76.106V74.1863C59.3902 74.707 60.0663 75.1639 61.2498 75.1461C61.0114 75.7426 60.8703 76.108 60.7401 76.2366C60.6969 76.366 60.7097 76.6859 60.7401 77.3058C60.7401 77.3058 59.4658 78.0258 59.7207 78.2657C59.9755 78.5057 61.1847 78.0104 61.2498 77.7858C61.1826 77.2747 61.209 77.2072 61.2498 77.0659C61.9651 75.7259 62.0243 75.4583 62.0144 75.1461V71.0667C61.9393 69.3377 61.7787 68.7879 61.2498 68.667C61.6099 67.1516 61.7735 66.7584 62.0144 66.9872C62.5598 69.0556 62.6075 70.7167 63.5435 72.0265C63.1514 73.2286 62.768 74.2025 62.7789 74.6662C63.2012 76.1164 63.4969 77.7207 63.7984 77.5458C63.8583 77.4586 63.9242 76.6474 64.0532 74.9062C65.0826 74.888 65.4981 74.7502 65.8372 74.1863C66.1727 74.4969 66.3686 74.6674 66.3469 75.1461C66.5704 75.9092 64.8178 76.346 64.8178 76.5859C64.8178 76.8259 65.2008 76.8865 66.0921 76.8259C66.3589 76.8933 65.4011 79.3085 65.8372 79.2256C66.2733 79.1427 67.3844 74.3844 67.3664 73.9463C66.81 72.1842 66.4338 71.6717 65.8372 71.0667C65.8978 69.6761 65.9774 68.6955 65.8372 68.187C64.4978 66.4302 64.7505 65.7933 64.3081 64.3475C63.4963 63.6357 63.0494 63.4962 62.2692 63.6276C61.4312 62.6372 61.5498 61.96 61.5047 62.1878C61.7257 62.4211 58.3469 65.8454 57.1721 67.2272C56.9639 67.5772 57.5475 69.2567 57.6818 70.3468C57.745 71.0686 57.2869 73.3013 56.9174 75.6261Z" fill="black"/>
<path d="M72.4095 50.1514C73.9506 50.7574 77.3499 52.1856 83.622 52.5509C84.0277 52.3639 84.8177 54.6254 85.9155 57.3497C85.4034 59.4559 84.7161 60.574 85.4059 62.8684C84.2004 63.9579 83.5079 64.6557 82.3479 65.5078C80.2443 64.7436 78.6849 63.953 77.5061 64.0681C75.8101 64.2647 74.5518 64.4274 74.703 64.3081C71.366 62.1346 67.5549 60.0298 67.3129 59.2693C67.1219 57.6394 66.9538 56.6537 67.3129 55.6701C69.6455 52.899 71.706 49.9901 72.4095 50.1514Z" fill="black"/>
<path d="M52.065 50.1514C50.5238 50.7575 47.1241 52.1858 40.8513 52.5511C40.4456 52.3642 39.6556 54.6259 38.5576 57.3505C39.0698 59.4569 39.7572 60.5751 39.0673 62.8698C40.2729 63.9593 40.9655 64.6573 42.1256 65.5094C44.2294 64.7452 45.7889 63.9545 46.9679 64.0696C48.664 64.2662 49.9225 64.4289 49.7713 64.3096C53.1087 62.1358 56.9201 60.0308 57.1622 59.2702C57.3532 57.6402 57.5213 56.6544 57.1622 55.6707C54.8293 52.8993 52.7686 49.9901 52.065 50.1514Z" fill="black"/>
<path d="M42.3858 38.8057C42.3858 38.8057 41.6134 40.8061 41.8709 40.8061C42.1283 40.8061 44.4454 38.8057 44.4454 38.8057H45.4752L45.9901 39.3058L48.0498 36.3054L45.9901 30.8045L42.3858 30.5544L40.841 32.3047C40.841 32.3047 38.5239 32.3047 38.5239 32.5548C38.5239 32.8048 40.5337 33.9998 41.0985 35.3052L40.3261 37.3055L41.6134 36.5554L42.1283 38.0556C42.3457 38.3036 42.51 38.4263 42.3858 38.8057Z" fill="black" stroke="black" stroke-width="0.169223"/>
<path d="M42.3861 32.0547C42.1287 32.0547 41.6138 32.8048 41.6138 32.8048L43.9309 37.8056C43.9309 37.8056 44.7032 38.0556 44.9607 37.8056C45.2182 37.5556 42.6436 32.0547 42.3861 32.0547Z" fill="white"/>
<path d="M45.2182 32.3047C45.2182 32.3047 43.9309 32.0547 43.6734 32.0547C43.416 32.0547 45.9905 38.0556 45.9905 37.8056C45.9905 37.5556 46.7629 36.5554 46.7629 36.3054C46.7629 36.0553 45.2182 32.3047 45.2182 32.3047Z" fill="white"/>
<path d="M52.3741 25.0699C50.8597 26.2542 49.6842 26.8168 49.2653 28.3414C49.2161 28.577 49.5354 29.1027 50.0599 29.99L49.6333 30.5632C50.3838 31.4447 50.3871 31.965 50.428 32.2118C50.4688 32.4587 49.5748 33.3582 49.5748 33.3582L51.2635 34.1073L53.8142 32.1893C54.341 32.8001 54.663 33.102 55.5438 33.1853C56.4581 32.7393 56.8963 32.5021 56.9462 32.2065L56.7418 30.9721C56.5033 31.3543 56.249 31.3792 55.7659 31.3779L54.7348 26.7271C54.7348 26.7271 55.1205 25.9071 55.6288 25.8277C56.1372 25.7482 54.1534 24.7919 54.1534 24.7919C53.5571 25.6828 53.1894 25.9227 52.3741 25.0699Z" fill="black" stroke="black" stroke-width="0.169223"/>
<path d="M52.4065 26.8378C51.6383 27.3356 50.5751 27.9164 50.6184 28.6367C50.6697 28.8952 50.8069 29.1329 51.2494 29.2979C51.6496 29.1474 52.3289 28.5679 53.1194 27.9927C53.1364 27.7935 52.9271 27.2799 52.4065 26.8378Z" fill="white"/>
<path d="M53.578 29.1873C52.5753 29.2607 51.5321 29.755 51.4539 30.5322L51.6584 31.7665C51.872 31.9669 52.1158 32.1739 52.7569 32.1014C53.3267 31.9752 53.478 31.5708 53.9052 31.1622C54.2582 30.6489 54.0335 29.9264 53.578 29.1873Z" fill="white"/>
<path d="M60.1822 25.804C60.0202 26.0617 60.494 26.2415 61.212 26.5541L61.212 30.8048C60.5949 31.245 60.0629 31.4503 60.1822 32.055C61.1585 32.5974 62.1118 33.2608 62.2418 33.0551C63.0816 32.3536 63.5768 31.809 64.3015 31.8049C64.5851 31.3672 64.5563 31.2177 64.3015 31.0548C63.8665 31.0032 63.1009 31.0882 62.725 31.3049V27.3042C62.9235 26.7161 64.835 25.8836 65.557 25.804C65.8874 26.0753 64.3291 26.9178 65.0421 27.3042C65.0421 27.3042 67.0705 26.0927 67.391 25.5539C66.6508 25.2998 66.2227 24.3412 66.1037 24.0537C65.9486 24.173 65.01 25.2808 63.2717 25.804L61.9844 24.3038C61.7729 24.082 61.0498 24.9713 60.1822 25.804Z" fill="black" stroke="black" stroke-width="0.169223"/>
<path d="M71.2305 28.6787L70.323 27.792C71.6987 27.2466 73.1406 26.3535 73.5342 25.4675C73.9277 24.5815 73.5815 25.1526 72.9075 27.9056L75.2003 28.2304C74.9353 29.0809 74.0928 29.1602 73.7956 29.5545L72.3076 29.1919L70.9636 33.8052C71.4726 33.539 72.1113 33.4048 72.3076 33.6324C72.4385 34.1607 72.551 34.514 72.4134 34.6581L70.2269 35.359L68.6666 33.6218C68.5031 33.4747 68.7753 33.3981 69.76 33.2714L71.2305 28.6787Z" fill="black" stroke="black" stroke-width="0.169223"/>
<path d="M83.4705 33.0611L85.8276 34.0668C84.6605 34.8015 84.009 35.2325 82.6136 34.3341C81.7564 33.5799 81.278 33.1762 80.4636 32.8705C79.7338 33.2878 79.3729 33.528 79.3708 34.0429L80.7851 34.6463C80.7851 34.6463 80.3618 33.0955 81.3618 34.6147C82.3619 36.1338 81.6048 36.308 81.2884 37.0684C80.5681 38.0647 80.1537 38.0285 79.6533 39.6387C79.2406 39.737 79.2516 40.2003 78.2712 39.582L76.6389 36.9739C76.1659 36.5684 75.8371 36.3544 74.1782 36.1971C75.5726 35.5408 76.0693 35.5592 77.0245 35.4998C77.4793 36.1023 77.5521 36.3468 78.7317 37.3206C79.8935 37.3944 79.8783 36.6457 79.8212 36.3826C79.3703 35.5737 79.984 35.1425 78.6172 35.0869C77.2504 35.0313 77.405 33.0147 77.6921 32.7804C78.904 31.3989 79.5726 30.4896 80.9526 31.1674C81.9971 32.041 82.6579 32.6947 83.4705 33.0611Z" fill="black" stroke="black" stroke-width="0.169223"/>
<g clip-path="url(#clip5_41_321)">
<path d="M65.3208 83.2666C65.5967 83.4294 65.8919 84.7525 65.8357 85.0169" stroke="black" stroke-width="0.1728"/>
<path d="M63.3003 85.0269C63.1444 84.7523 63.5662 83.4619 63.7504 83.2598" stroke="black" stroke-width="0.1728"/>
<path d="M61.1392 85.5369C60.9833 85.2623 61.4051 83.9719 61.5893 83.7698" stroke="black" stroke-width="0.1728"/>
<path d="M59.5947 84.0369C59.4389 83.7623 59.8606 82.4719 60.0448 82.2698" stroke="black" stroke-width="0.1728"/>
<path d="M56.8281 84.9692C56.7372 84.6684 57.4366 83.4973 57.6615 83.3387" stroke="black" stroke-width="0.1728"/>
<path d="M54.6387 84.2227C54.6551 83.9095 55.7134 83.0284 55.9796 82.9508" stroke="black" stroke-width="0.1728"/>
<path d="M67.1855 83.8452C67.4919 83.9441 68.0838 85.1698 68.0898 85.4397" stroke="black" stroke-width="0.1728"/>
<path d="M68.9253 82.3928C69.2343 82.4836 69.8602 83.6933 69.8737 83.9629" stroke="black" stroke-width="0.1728"/>
<path d="M70.9849 83.5159C71.3075 83.5258 72.235 84.5364 72.32 84.7934" stroke="black" stroke-width="0.1728"/>
<path d="M74.0742 96.9067C74.3701 96.9381 74.9013 97.7079 74.8966 97.8922" stroke="black" stroke-width="0.1728"/>
<path d="M53.0464 97.9468C52.9739 97.6665 53.5325 96.9152 53.7121 96.8554" stroke="black" stroke-width="0.1728"/>
<path d="M72.6699 98.3215C72.9502 98.513 73.2817 100.111 73.2327 100.433" stroke="black" stroke-width="0.1728"/>
<path d="M54.9434 100.321C54.8247 100.009 55.4861 98.5106 55.7145 98.2728" stroke="black" stroke-width="0.1728"/>
<path d="M70.9849 99.7803C71.2643 99.9337 71.5887 101.222 71.5384 101.482" stroke="black" stroke-width="0.1728"/>
<path d="M57.6719 101.502C57.5121 101.231 57.9096 99.9623 58.0893 99.7637" stroke="black" stroke-width="0.1728"/>
<path d="M67.3804 100.995C67.7185 101.054 68.7229 102.372 68.8204 102.685" stroke="black" stroke-width="0.1728"/>
<path d="M59.5449 101.924C59.4882 101.595 60.4291 100.234 60.7001 100.039" stroke="black" stroke-width="0.1728"/>
<path d="M63.978 99.6333C64.3107 99.8486 65.1158 102.03 65.1643 102.492" stroke="black" stroke-width="0.1728"/>
<path d="M62.0361 102.419C61.8614 102.067 62.2969 99.7825 62.4937 99.3599" stroke="black" stroke-width="0.1728"/>
</g>
<g clip-path="url(#clip6_41_321)">
<path d="M9.05935 75.6926L7.86499 73.553L7.91245 73.5569C9.26627 73.6692 10.0397 73.7334 10.5463 75.215C10.731 76.2907 10.8452 76.8779 11.2848 77.5851C12.1227 77.6893 12.5587 77.7148 12.8912 77.3216L12.1746 76.0378C12.1746 76.0378 11.5088 77.4718 11.7039 75.7271C11.899 73.9824 12.602 74.2886 13.3375 73.8898C14.54 73.5449 14.8403 73.8134 16.2654 72.8704C16.6509 73.0348 16.94 72.6734 17.3083 73.7166L16.9072 76.6628C17.0161 77.2482 17.1353 77.6031 18.3295 78.6872C16.8192 78.3801 16.4431 78.0775 15.6591 77.5682C15.6911 76.8424 15.7913 76.6128 15.4959 75.1816C14.6362 74.4503 14.167 75.0327 14.0426 75.2674C13.875 76.149 13.1188 76.123 14.1503 76.9595C15.1818 77.7959 13.7656 79.2511 13.3909 79.2638C11.5571 79.6184 10.4508 79.9267 9.80881 78.6058C9.55442 77.3298 9.45845 76.4453 9.05935 75.6926Z" fill="white" stroke="black" stroke-width="0.169223"/>
<path d="M16.5212 70.5753L17.2322 69.7853C17.5137 69.4596 16.5624 67.8911 16.0688 68.1757C15.5752 68.4603 15.5948 68.7023 15.5948 68.7023L14.8251 68.7661L13.8987 66.8931L14.5901 65.861L15.6164 65.776L16.4057 65.9544L16.8601 65.1856L15.9925 64.0389L15.2619 64.5868L13.7225 64.7143C13.7225 64.7143 13.2474 65.7285 13.0311 65.7464C12.8148 65.7643 13.7236 64.2268 12.657 64.3151C11.5904 64.4035 10.4469 65.2293 10.1696 65.496C9.89234 65.7626 9.89145 68.4435 9.89145 68.4435L6.81256 68.6985C6.68885 69.072 7.93788 69.3364 7.64103 69.361C7.34419 69.3856 6.91386 69.967 7.18663 70.1298L15.9493 69.8915C16.128 69.9138 16.2562 70.054 16.5212 70.5753Z" fill="white"/>
<path d="M14.0153 68.8329C14.0349 69.075 11.193 69.0666 11.193 69.0666C10.734 68.8736 10.18 67.8443 10.9776 66.4037C10.9776 66.4037 12.0039 66.3187 12.2409 66.0553C12.4779 65.792 13.9957 68.5908 14.0153 68.8329Z" fill="black"/>
<path d="M7.38032 60.3448L8.72551 61.9904L9.47164 61.2298L14.3665 61.2682L15.172 62.207L16.1838 61.6785L16.1583 60.9501L14.9857 56.8659L15.7657 57.0764L16.752 55.8194L15.6725 54.4058L14.412 55.1879L10.023 54.8852L9.4917 54.4212L7.99096 55.6997L9.07049 57.1133L9.55945 56.3634L13.4426 56.9304L14.7962 58.8189L14.3157 59.8115L10.1924 59.7409L8.86413 58.5807L7.38032 60.3448Z" fill="white" stroke="black" stroke-width="0.169223"/>
<path d="M8.66589 49.7556L8.68541 50.241L8.69516 50.4837L14.4039 51.4921C14.6417 51.8335 14.749 51.8826 14.938 51.9588L15.4525 51.9402C16.2663 51.7788 16.5101 51.5791 16.7096 51.1655L16.6901 50.6801C16.5712 50.2217 16.6768 49.9787 16.1267 49.4852L15.3549 49.5132C15.3549 49.5132 14.7836 49.7298 14.8599 50.0172C14.9362 50.3046 9.3694 48.0288 9.3694 48.0288C9.30853 47.8421 9.05808 47.3129 8.68283 47.5581L8.62686 48.7848C8.61609 49.033 9.02614 49.2852 9.69498 49.7183L8.66589 49.7556Z" fill="white" stroke="black" stroke-width="0.169223"/>
<path d="M10.0839 42.8509L9.98662 43.3274L9.93797 43.5656L15.2557 45.8012C15.4055 46.1855 15.4982 46.2569 15.664 46.3726L16.1695 46.4675C17.0007 46.4893 17.286 46.3487 17.5793 45.9901L17.6766 45.5137C17.6707 45.0416 17.8317 44.8285 17.4143 44.2275L16.656 44.0851C16.656 44.0851 16.0478 44.1703 16.0532 44.4667C16.0586 44.763 11.1828 41.3256 11.1828 41.3256C11.1682 41.1307 11.0511 40.5608 10.6269 40.7169L10.2785 41.8979C10.2086 42.137 10.5474 42.4725 11.095 43.0408L10.0839 42.8509Z" fill="white" stroke="black" stroke-width="0.169223"/>
</g>
<path d="M100.521 73.6578C101.319 70.5814 101.612 68.8523 101.876 65.7862L100.292 65.5134C100.003 68.7127 99.6938 70.4298 98.9364 73.385L100.521 73.6578Z" fill="black"/>
<path d="M97.1726 65.405L87.7681 65.405C86.7714 67.0022 86.5775 67.7283 85.4836 68.7286L86.5836 72.1977L88.2758 78.5435L95.4678 83.9587L97.6677 83.6202L103.59 78.7128L105.367 70.9285C105.308 70.1131 104.645 69.5206 103.944 69.0455L97.1726 65.405Z" stroke="white" stroke-width="0.50767"/>
<path d="M97.255 65.7483L89.2948 65.6552C88.2981 67.2524 87.0646 68.4655 85.9706 69.4658L86.8809 72.3966L88.5311 78.4581L95.4982 83.6854L97.0997 83.488L103.028 78.8195L104.956 71.0641C104.896 70.2487 104.727 69.8638 104.027 69.3887L97.255 65.7483Z" fill="black"/>
<g clip-path="url(#clip7_41_321)">
<rect x="95.3916" y="65.521" width="0.50767" height="7.49384" rx="0.169223" transform="rotate(2.88151 95.3916 65.521)" fill="white"/>
</g>
<rect width="0.505986" height="7.44393" transform="matrix(-0.998502 -0.0547136 -0.0547136 0.998502 97.2563 65.5979)" fill="white"/>
<g clip-path="url(#clip8_41_321)">
<path d="M95.1867 73.046C95.3243 73.0162 95.6183 72.868 95.5094 72.7027L88.2504 67.0562L87.9417 67.4531C87.9417 67.4531 95.0491 73.0759 95.1867 73.046Z" fill="white"/>
</g>
<g clip-path="url(#clip9_41_321)">
<rect width="0.50767" height="9.76061" rx="0.253835" transform="matrix(0.613982 -0.78932 -0.78932 -0.613982 94.4595 74.5974)" fill="white"/>
</g>
<g clip-path="url(#clip10_41_321)">
<path d="M94.2728 73.9898C94.4053 73.9371 94.5561 73.9953 94.6188 74.1234V74.1234C94.6891 74.2668 94.6218 74.4397 94.4731 74.4978L88.2028 76.9495C88.072 77.0007 87.9245 76.9362 87.8732 76.8055V76.8055C87.822 76.675 87.8859 76.5277 88.0161 76.4759L94.2728 73.9898Z" fill="white"/>
</g>
<g clip-path="url(#clip11_41_321)">
<path d="M95.3944 75.4764C95.548 75.6464 95.5657 75.7053 95.5689 75.9314L88.4301 78.8979L88.2241 78.3912L95.3944 75.4764Z" fill="white"/>
</g>
<g clip-path="url(#clip12_41_321)">
<rect x="96.1177" y="75.8284" width="0.430927" height="7.92972" rx="0.169223" transform="rotate(2.54796 96.1177 75.8284)" fill="white"/>
</g>
<g clip-path="url(#clip13_41_321)">
<rect x="95.0938" y="75.7483" width="0.482701" height="7.80921" rx="0.169223" transform="rotate(2.54796 95.0938 75.7483)" fill="white"/>
</g>
<g clip-path="url(#clip14_41_321)">
<rect width="0.494591" height="6.93021" rx="0.169223" transform="matrix(0.613982 -0.78932 -0.78932 -0.613982 101.542 80.4199)" fill="white"/>
</g>
<g clip-path="url(#clip15_41_321)">
<path d="M97.4062 74.0968C97.2874 74.1314 97.0394 74.3261 97.125 74.4652L103.068 79.0023L103.349 78.6339C103.349 78.6339 97.5249 74.0622 97.4062 74.0968Z" fill="white"/>
</g>
<g clip-path="url(#clip16_41_321)">
<path d="M105.254 70.9055L105.479 71.4582L97.6178 74.6538L97.3932 74.1011L105.254 70.9055Z" fill="white"/>
</g>
<g clip-path="url(#clip17_41_321)">
<rect x="104.756" y="69.363" width="0.436244" height="8.80274" rx="0.169223" transform="rotate(67.878 104.756 69.363)" fill="white"/>
</g>
<path d="M26.1172 65.3544L35.5214 65.4261C36.5059 67.0308 36.6942 67.7583 37.7805 68.7669L36.6542 72.2275L34.9136 78.5603L27.6806 83.9205L25.4833 83.5653L19.5981 78.6128L17.8806 70.8152C17.9465 70.0003 18.6141 69.4129 19.3181 68.9431L26.1172 65.3544Z" stroke="white" stroke-width="0.50767"/>
<path d="M26.0319 65.6969L33.9927 65.6645C34.9772 67.2693 36.2014 68.4917 37.2877 69.5003L36.3551 72.4241L34.6588 78.4728L27.652 83.6469L26.052 83.4373L20.1595 78.7238L18.291 70.9539C18.3569 70.139 18.5289 69.7554 19.2329 69.2856L26.0319 65.6969Z" fill="black"/>
<g clip-path="url(#clip18_41_321)">
<rect width="0.50767" height="7.49384" rx="0.169223" transform="matrix(-0.99909 0.0426577 0.0426577 0.99909 27.8975 65.4841)" fill="white"/>
</g>
<rect width="0.505986" height="7.44393" transform="translate(26.0317 65.5466) rotate(-2.69977)" fill="white"/>
<g clip-path="url(#clip19_41_321)">
<path d="M28.0443 73.0102C27.9069 72.9793 27.614 72.8289 27.7241 72.6644L35.026 67.0734L35.3317 67.4726C35.3317 67.4726 28.1816 73.0411 28.0443 73.0102Z" fill="white"/>
</g>
<g clip-path="url(#clip20_41_321)">
<rect x="28.7603" y="74.5671" width="0.50767" height="9.76061" rx="0.253835" transform="rotate(-127.441 28.7603 74.5671)" fill="white"/>
</g>
<g clip-path="url(#clip21_41_321)">
<path d="M28.9514 73.9609C28.8193 73.9072 28.6681 73.9643 28.6044 74.0918V74.0918C28.533 74.2347 28.599 74.4081 28.7473 74.4674L34.9987 76.9668C35.1291 77.0189 35.2771 76.9556 35.3294 76.8253V76.8253C35.3816 76.6952 35.3189 76.5474 35.189 76.4946L28.9514 73.9609Z" fill="white"/>
</g>
<g clip-path="url(#clip22_41_321)">
<path d="M27.8183 75.439C27.6634 75.6078 27.6453 75.6666 27.6404 75.8927L34.7564 78.9134L34.9662 78.4083L27.8183 75.439Z" fill="white"/>
</g>
<g clip-path="url(#clip23_41_321)">
<rect width="0.430927" height="7.88964" rx="0.169223" transform="matrix(-0.999321 0.0368409 0.0368409 0.999321 27.0928 75.7883)" fill="white"/>
</g>
<g clip-path="url(#clip24_41_321)">
<rect width="0.482701" height="7.68034" transform="matrix(-0.999321 0.0368409 0.0368409 0.999321 28.1226 75.8655)" fill="white"/>
</g>
<g clip-path="url(#clip25_41_321)">
<rect x="21.5674" y="80.2529" width="0.494591" height="7.03611" rx="0.169223" transform="rotate(-127.441 21.5674 80.2529)" fill="white"/>
</g>
<g clip-path="url(#clip26_41_321)">
<path d="M25.8174 74.0443C25.9362 74.0796 26.1831 74.2759 26.0958 74.4148L20.0864 78.9303L19.808 78.5598C19.808 78.5598 25.6986 74.009 25.8174 74.0443Z" fill="white"/>
</g>
<g clip-path="url(#clip27_41_321)">
<path d="M18.1128 70.8425L17.8839 71.3934L25.6014 74.5994L25.8302 74.0485L18.1128 70.8425Z" fill="white"/>
</g>
<g clip-path="url(#clip28_41_321)">
<rect width="0.436244" height="8.80274" rx="0.169223" transform="matrix(-0.38363 0.923487 0.923487 0.38363 18.5034 69.2546)" fill="white"/>
</g>
<path d="M112.601 54.3692L113.05 53.6619L111.03 52.4832H109.908L111.479 55.3122V57.6697L111.03 58.3769L104.521 54.6049V55.5479L105.194 57.1982L112.601 62.149V54.3692Z" fill="white"/>
<path d="M111.254 63.5635H110.805V65.6852C110.793 65.9831 110.85 66.1948 110.357 66.1567L105.643 64.7422L104.97 63.7992H104.521V64.7422L104.97 67.3355H105.643V66.864L113.274 68.9858V68.0428L111.254 63.5635Z" fill="white"/>
</g>
<defs>
<clipPath id="clip0_41_321">
<rect width="124.091" height="124.091" fill="white" transform="translate(0.956543 0.531494)"/>
</clipPath>
<clipPath id="clip1_41_321">
<rect width="121.502" height="121.502" fill="white" transform="translate(0.964844 0.540283)"/>
</clipPath>
<clipPath id="clip2_41_321">
<rect width="33.2185" height="27.0757" fill="white" transform="matrix(-1 0 0 1 112.187 11.531)"/>
</clipPath>
<clipPath id="clip3_41_321">
<rect width="33.2185" height="26.9996" fill="white" transform="translate(17.5405 10.8542)"/>
</clipPath>
<clipPath id="clip4_41_321">
<rect width="81.3964" height="81.3964" fill="white" transform="translate(21.0942 21.6846)"/>
</clipPath>
<clipPath id="clip5_41_321">
<rect width="22.1649" height="20.6419" fill="white" transform="translate(52.7388 82.2664)"/>
</clipPath>
<clipPath id="clip6_41_321">
<rect width="15.5685" height="40.1059" fill="white" transform="translate(2.31006 42.1614) rotate(-5.61723)"/>
</clipPath>
<clipPath id="clip7_41_321">
<rect width="0.551565" height="7.29501" fill="white" transform="matrix(-0.998502 -0.0547136 -0.0547136 0.998502 96.0874 65.5056)"/>
</clipPath>
<clipPath id="clip8_41_321">
<rect width="0.676893" height="9.30728" fill="white" transform="matrix(0.613982 -0.78932 -0.78932 -0.613982 95.2563 73.2031)"/>
</clipPath>
<clipPath id="clip9_41_321">
<rect width="0.50767" height="10.0739" fill="white" transform="matrix(0.613982 -0.78932 -0.78932 -0.613982 94.5044 74.6506)"/>
</clipPath>
<clipPath id="clip10_41_321">
<rect width="0.50767" height="7.44582" fill="white" transform="matrix(0.365397 0.930852 0.930852 -0.365397 87.9917 76.7161)"/>
</clipPath>
<clipPath id="clip11_41_321">
<rect width="0.50767" height="8.33916" fill="white" transform="matrix(0.376581 0.926384 0.926384 -0.376581 88.2246 78.3911)"/>
</clipPath>
<clipPath id="clip12_41_321">
<rect width="0.63702" height="8.00336" fill="white" transform="matrix(0.999011 0.0444556 0.0444556 -0.999011 95.7266 83.7683)"/>
</clipPath>
<clipPath id="clip13_41_321">
<rect width="0.705455" height="7.91815" fill="white" transform="matrix(0.999011 0.0444556 0.0444556 -0.999011 94.7051 83.5547)"/>
</clipPath>
<clipPath id="clip14_41_321">
<rect width="0.61347" height="7.32734" fill="white" transform="matrix(0.613982 -0.78932 -0.78932 -0.613982 101.721 80.3733)"/>
</clipPath>
<clipPath id="clip15_41_321">
<rect width="0.50767" height="7.73689" fill="white" transform="matrix(0.613982 -0.78932 -0.78932 -0.613982 103.068 79.043)"/>
</clipPath>
<clipPath id="clip16_41_321">
<rect width="0.795836" height="8.64247" fill="white" transform="matrix(0.376581 0.926384 0.926384 -0.376581 97.3232 74.0625)"/>
</clipPath>
<clipPath id="clip17_41_321">
<rect width="0.535188" height="8.79961" fill="white" transform="matrix(0.376581 0.926384 0.926384 -0.376581 96.4707 72.6221)"/>
</clipPath>
<clipPath id="clip18_41_321">
<rect width="0.551565" height="7.29501" fill="white" transform="translate(27.2012 65.4634) rotate(-2.69977)"/>
</clipPath>
<clipPath id="clip19_41_321">
<rect width="0.676893" height="9.30728" fill="white" transform="translate(27.9746 73.167) rotate(-127.441)"/>
</clipPath>
<clipPath id="clip20_41_321">
<rect width="0.50767" height="10.0739" fill="white" transform="translate(28.7148 74.6201) rotate(-127.441)"/>
</clipPath>
<clipPath id="clip21_41_321">
<rect width="0.50767" height="7.44582" fill="white" transform="translate(35.2119 76.7351) rotate(111.869)"/>
</clipPath>
<clipPath id="clip22_41_321">
<rect width="0.50767" height="8.33916" fill="white" transform="translate(34.9658 78.4082) rotate(112.559)"/>
</clipPath>
<clipPath id="clip23_41_321">
<rect width="0.63702" height="7.96621" fill="white" transform="translate(27.4219 83.6909) rotate(177.889)"/>
</clipPath>
<clipPath id="clip24_41_321">
<rect width="0.705455" height="7.70762" fill="white" transform="translate(28.4468 83.5457) rotate(177.889)"/>
</clipPath>
<clipPath id="clip25_41_321">
<rect width="0.50767" height="7.19983" fill="white" transform="translate(21.4409 80.1653) rotate(-127.441)"/>
</clipPath>
<clipPath id="clip26_41_321">
<rect width="0.50767" height="7.66884" fill="white" transform="translate(20.0869 78.9709) rotate(-127.441)"/>
</clipPath>
<clipPath id="clip27_41_321">
<rect width="0.795836" height="8.50905" fill="white" transform="translate(25.9004 74.0105) rotate(112.559)"/>
</clipPath>
<clipPath id="clip28_41_321">
<rect width="0.535188" height="8.79961" fill="white" transform="translate(26.7637 72.5767) rotate(112.559)"/>
</clipPath>
</defs>
</svg>
