<svg width="152" height="140" viewBox="0 0 152 140" fill="none" xmlns="http://www.w3.org/2000/svg">
<path d="M39.8736 64.9443C34.6599 63.9971 34.1514 60.9452 34.5912 54.0955C30.1729 54.2175 26.7528 50.0627 26.3552 47.3363C25.9576 44.6099 28.611 39.5841 34.5912 38.5327C26.5256 33.6479 31.9062 27.2706 36.8632 27.9679C37.2548 22.1017 39.8649 18.2519 45.0423 16.3807C50.8927 12.6887 58.3336 23.8215 60.208 23.8215C62.0824 23.8215 62.6504 15.3351 69.296 19.6519C75.9415 23.9687 79.1791 15.0175 84.632 15.6991C90.0848 16.3806 91.0739 20.0932 90.0848 25.0711C104.443 20.5507 101.351 33.4598 99.7408 35.3517C98.1302 37.2436 106.33 36.9427 106.898 39.3847C107.466 41.8267 108.658 47.0295 105.534 48.3591C102.41 49.6888 96.1624 44.5871 95.14 45.0643C94.1175 45.5415 92.9257 49.0896 90.0848 50.0627C86.607 49.3819 86.1656 41.5199 85.9384 41.8267C85.7111 42.1335 80.4288 50.8351 77.3616 50.6307C74.2943 50.4263 70.0912 42.5991 70.148 43.4739C70.2047 44.3487 70.2616 48.0407 69.296 50.0627C68.3304 52.0847 69.4972 48.5063 68.3304 48.6427C67.1635 48.7791 65.3768 53.1299 65.3768 53.1299C62.726 52.5719 62.7544 50.414 63.1048 46.2003C62.0521 50.8384 54.1304 54.9815 54.5848 53.1299C55.0391 51.2783 58.6744 48.8703 56.8 50.0627C54.9255 51.2551 51.9377 52.7981 47.7688 49.2675C47.7688 49.2675 49.8704 46.7687 48.6776 47.3363C47.4847 47.9039 42.9975 50.1191 43.4519 50.6307C43.9064 51.1423 45.0423 50.0627 45.0423 50.0627C45.51 59.2168 46.5964 65.457 39.8736 64.9443Z" fill="white"/>
<path d="M47.144 26.4911C45.7808 23.1967 49.5864 20.7543 51.2904 23.8215M34.5912 54.0955C34.1514 60.9452 34.6599 63.9971 39.8736 64.9443C46.5964 65.457 45.51 59.2168 45.0423 50.0627C45.0423 50.0627 43.9064 51.1423 43.4519 50.6307C42.9975 50.1191 47.4847 47.9039 48.6776 47.3363C49.8704 46.7687 47.7688 49.2675 47.7688 49.2675C51.9377 52.7981 54.9255 51.2551 56.8 50.0627C58.6744 48.8703 55.0391 51.2783 54.5848 53.1299C54.1304 54.9815 62.0521 50.8384 63.1048 46.2003C62.7544 50.414 62.726 52.5719 65.3768 53.1299C65.3768 53.1299 67.1635 48.7791 68.3304 48.6427C69.4972 48.5063 68.3304 52.0847 69.296 50.0627C70.2616 48.0407 70.2047 44.3487 70.148 43.4739C70.0912 42.5991 74.2943 50.4263 77.3616 50.6307C80.4288 50.8351 85.7111 42.1335 85.9384 41.8267C86.1656 41.5199 86.607 49.3819 90.0848 50.0627C92.9257 49.0896 94.1175 45.5415 95.14 45.0643C96.1624 44.5871 102.41 49.6888 105.534 48.3591C108.658 47.0295 107.466 41.8267 106.898 39.3847C106.33 36.9427 98.1302 37.2436 99.7408 35.3517C101.351 33.4598 104.443 20.5507 90.0848 25.0711C91.0739 20.0932 90.0848 16.3806 84.632 15.6991C79.1792 15.0175 75.9415 23.9687 69.296 19.6519C62.6504 15.3351 62.0824 23.8215 60.208 23.8215C58.3336 23.8215 50.8927 12.6887 45.0423 16.3807C39.8649 18.2519 37.2548 22.1017 36.8632 27.9679C31.9062 27.2706 26.5256 33.6479 34.5912 38.5327C28.611 39.5841 25.9576 44.6099 26.3552 47.3363C26.7528 50.0627 30.1729 54.2175 34.5912 54.0955Z" stroke="black" stroke-width="1.704"/>
<path d="M37.2029 43.3958C39.5885 40.3285 43.1101 41.6917 43.8485 43.907" stroke="black" stroke-width="1.704" stroke-linecap="round"/>
<path d="M41.5576 39.247C43.3274 35.7839 47.0509 36.457 48.1955 38.493" stroke="black" stroke-width="1.704" stroke-linecap="round"/>
<path d="M46.5221 25.7597C47.6708 22.0476 51.4469 22.0794 52.9201 23.8912" stroke="black" stroke-width="1.704" stroke-linecap="round"/>
<path d="M68.3745 33.4264C71.8324 31.6538 74.4487 34.3769 74.1823 36.6968" stroke="black" stroke-width="1.704" stroke-linecap="round"/>
<path d="M91.726 31.0018C94.5531 29.7282 96.8211 31.9365 96.6726 33.7387" stroke="black" stroke-width="1.704" stroke-linecap="round"/>
<path d="M97.6325 39.7504C100.46 38.4767 102.728 40.6851 102.579 42.4872" stroke="black" stroke-width="1.704" stroke-linecap="round"/>
<path d="M58.4118 33.7349C63.6227 30.3129 67.1251 34.4786 66.4871 38.3709" stroke="black" stroke-width="1.704" stroke-linecap="round"/>
<path d="M72.7253 25.1719C77.9362 21.7499 81.4385 25.9156 80.8006 29.8079" stroke="black" stroke-width="1.704" stroke-linecap="round"/>
<path d="M83.9005 31.6362C88.7895 27.7683 92.6454 31.6091 92.353 35.5425" stroke="black" stroke-width="1.704" stroke-linecap="round"/>
<path d="M84.9338 51.2344C86.5417 54.105 88.3072 54.7703 93.2834 53.9608C96.2296 55.0374 97.35 55.9522 96.805 59.0728C93.0726 57.8534 90.858 57.8653 86.6946 59.0728C88.1043 80.8041 88.5899 92.9824 88.853 114.68C75.8953 118.023 67.7761 118.61 51.4218 116.838C50.2967 100.357 49.6565 92.2528 48.4114 90.4832C45.5475 93.4815 45.3141 101.252 45.2874 116.838C42.946 116.579 42.1004 116.098 41.3682 114.68C41.0908 103.55 41.1461 93.7394 42.561 74.5224C43.5802 71.3913 43.2141 70.0474 42.5615 67.6516L42.561 67.6496C49.089 67.6011 49.6317 63.9433 48.4114 54.8696C53.2787 57.8131 56.0287 57.8735 60.9642 55.4944C67.461 60.3615 68.896 57.3767 71.3586 51.8024C76.0406 57.5386 79.0464 57.0924 84.9338 51.2344Z" fill="url(#paint0_linear_56_86)"/>
<path d="M38.0555 67.4786C35.9048 67.8899 35.0308 67.2467 33.6819 65.5474L32.4323 85.3138C31.9522 107.335 31.855 116.206 32.4323 116.838C33.6829 121.457 36.3401 122.424 43.1107 122.461C61.9992 125.174 72.4869 125.016 90.9931 121.552C98.1678 117.999 99.0126 115.179 98.7179 109.681C98.7389 101.513 98.4588 98.9685 97.7523 95.8786V82.3602C97.4801 72.3019 96.9949 68.355 95.8779 62.5938L92.2995 60.4922C94.9365 84.9229 96.236 106.742 95.0827 111.669C95.3204 118.532 93.5429 120.579 87.5283 121.552C69.4211 124.327 59.6994 124.314 43.1107 121.552C39.1266 120.969 37.6537 119.88 36.1243 116.838C34.9319 116.498 35.0739 110.236 36.1243 93.0954L38.0555 67.4786Z" fill="black" stroke="black" stroke-width="0.9088"/>
<path d="M107.806 51.1768C105.799 55.0491 103.818 56.3354 97.9225 56.1752L99.2857 60.8328L94.0601 60.0944L96.9001 101.218H100.251C109.658 100.65 114.691 96.3317 120.529 87.472C125.241 74.1527 125.773 68.2917 122.801 60.8328C118.618 54.7366 115.281 52.6966 107.806 51.1768Z" fill="black" stroke="black" stroke-width="0.9088"/>
<path d="M105.818 58.9028C103.279 62.6117 101.369 63.3571 97.468 63.3332L99.5128 93.21C101.199 95.9895 102.756 95.9654 106.272 94.0052C112.416 88.8771 114.894 85.4179 116.837 77.7604C118.523 65.1091 114.264 61.5179 105.818 58.9028Z" fill="white" stroke="black" stroke-width="0.9088"/>
<path d="M110.987 53.165C109.979 53.4752 109.73 53.7865 109.908 54.585C110.987 57.0842 114.622 57.1978 115.077 57.6522C115.531 58.1066 118.748 60.6499 120.245 63.0482C119.839 60.5786 119.265 59.3512 117.576 57.4818C115.608 54.9854 114.059 54.162 110.987 53.165Z" fill="white" stroke="black" stroke-width="0.9088"/>
<defs>
<linearGradient id="paint0_linear_56_86" x1="69.0869" y1="51.2344" x2="69.0869" y2="117.816" gradientUnits="userSpaceOnUse">
<stop stop-color="#E9CB1C"/>
<stop offset="1" stop-color="#D28302"/>
</linearGradient>
</defs>
</svg>
