<svg width="152" height="140" viewBox="0 0 152 140" fill="none" xmlns="http://www.w3.org/2000/svg">
<path d="M39.8743 64.9458C34.6607 63.9986 34.1521 60.9467 34.5919 54.097C30.1737 54.219 26.7535 50.0642 26.3559 47.3378C25.9583 44.6114 28.6117 39.5855 34.5919 38.5342C26.5263 33.6494 31.9069 27.2721 36.8639 27.9694C37.2555 22.1032 39.8656 18.2533 45.0431 16.3822C50.8935 12.6902 58.3343 23.823 60.2087 23.823C62.0831 23.823 62.6511 15.3366 69.2967 19.6534C75.9422 23.9702 79.1799 15.019 84.6327 15.7006C90.0855 16.3821 91.0746 20.0946 90.0855 25.0726C104.444 20.5521 101.352 33.4613 99.7415 35.3532C98.131 37.2451 106.33 36.9442 106.898 39.3862C107.466 41.8282 108.659 47.031 105.535 48.3606C102.411 49.6902 96.1631 44.5886 95.1407 45.0658C94.1182 45.543 92.9264 49.091 90.0855 50.0642C86.6077 49.3834 86.1663 41.5213 85.9391 41.8282C85.7118 42.135 80.4295 50.8366 77.3623 50.6322C74.295 50.4278 70.0919 42.6005 70.1487 43.4754C70.2054 44.3502 70.2623 48.0422 69.2967 50.0642C68.3311 52.0862 69.4979 48.5078 68.3311 48.6442C67.1642 48.7806 65.3775 53.1314 65.3775 53.1314C62.7267 52.5733 62.7551 50.4155 63.1055 46.2018C62.0529 50.8398 54.1311 54.983 54.5855 53.1314C55.0398 51.2798 58.6751 48.8718 56.8007 50.0642C54.9262 51.2566 51.9385 52.7996 47.7695 49.269C47.7695 49.269 49.8711 46.7702 48.6783 47.3378C47.4854 47.9053 42.9982 50.1206 43.4527 50.6322C43.9071 51.1438 45.0431 50.0642 45.0431 50.0642C45.5108 59.2183 46.5971 65.4584 39.8743 64.9458Z" fill="white"/>
<path d="M47.1447 26.4926C45.7815 23.1982 49.5871 20.7558 51.2911 23.823M34.5919 54.097C34.1521 60.9467 34.6607 63.9986 39.8743 64.9458C46.5971 65.4584 45.5108 59.2183 45.0431 50.0642C45.0431 50.0642 43.9071 51.1438 43.4527 50.6322C42.9982 50.1206 47.4854 47.9053 48.6783 47.3378C49.8711 46.7702 47.7695 49.269 47.7695 49.269C51.9385 52.7996 54.9262 51.2566 56.8007 50.0642C58.6751 48.8718 55.0398 51.2798 54.5855 53.1314C54.1311 54.983 62.0529 50.8398 63.1055 46.2018C62.7552 50.4155 62.7267 52.5733 65.3775 53.1314C65.3775 53.1314 67.1642 48.7806 68.3311 48.6442C69.4979 48.5078 68.3311 52.0862 69.2967 50.0642C70.2623 48.0422 70.2054 44.3502 70.1487 43.4754C70.0919 42.6005 74.295 50.4278 77.3623 50.6322C80.4295 50.8366 85.7118 42.135 85.9391 41.8282C86.1663 41.5213 86.6077 49.3834 90.0855 50.0642C92.9264 49.091 94.1182 45.543 95.1407 45.0658C96.1631 44.5886 102.411 49.6902 105.535 48.3606C108.659 47.031 107.466 41.8282 106.898 39.3862C106.33 36.9442 98.131 37.2451 99.7415 35.3532C101.352 33.4613 104.444 20.5521 90.0855 25.0726C91.0746 20.0946 90.0855 16.3821 84.6327 15.7006C79.1799 15.019 75.9422 23.9702 69.2967 19.6534C62.6511 15.3366 62.0831 23.823 60.2087 23.823C58.3343 23.823 50.8935 12.6902 45.0431 16.3822C39.8656 18.2533 37.2555 22.1032 36.8639 27.9694C31.9069 27.2721 26.5263 33.6494 34.5919 38.5342C28.6117 39.5855 25.9583 44.6114 26.3559 47.3378C26.7535 50.0642 30.1737 54.219 34.5919 54.097Z" stroke="black" stroke-width="1.704"/>
<path d="M37.2046 43.3943C39.5902 40.327 43.1118 41.6902 43.8502 43.9055" stroke="black" stroke-width="1.704" stroke-linecap="round"/>
<path d="M41.5584 39.247C43.3282 35.7839 47.0516 36.457 48.1962 38.493" stroke="black" stroke-width="1.704" stroke-linecap="round"/>
<path d="M46.5228 25.7578C47.6716 22.0457 51.4476 22.0775 52.9208 23.8893" stroke="black" stroke-width="1.704" stroke-linecap="round"/>
<path d="M68.3762 33.4245C71.8342 31.6519 74.4504 34.3749 74.184 36.6948" stroke="black" stroke-width="1.704" stroke-linecap="round"/>
<path d="M91.7275 31.0018C94.5545 29.7282 96.8225 31.9365 96.6741 33.7387" stroke="black" stroke-width="1.704" stroke-linecap="round"/>
<path d="M97.635 39.7484C100.462 38.4747 102.73 40.6831 102.582 42.4853" stroke="black" stroke-width="1.704" stroke-linecap="round"/>
<path d="M58.4135 33.7349C63.6244 30.3129 67.1268 34.4786 66.4888 38.3709" stroke="black" stroke-width="1.704" stroke-linecap="round"/>
<path d="M72.727 25.1719C77.9379 21.7499 81.4402 25.9156 80.8023 29.8079" stroke="black" stroke-width="1.704" stroke-linecap="round"/>
<path d="M83.9012 31.6343C88.7903 27.7663 92.6461 31.6071 92.3538 35.5405" stroke="black" stroke-width="1.704" stroke-linecap="round"/>
<path d="M84.9345 51.2324C86.5424 54.1031 88.3079 54.7683 93.2841 53.9588C96.2303 55.0354 97.3507 55.9502 96.8057 59.0708C93.0733 57.8515 90.8587 57.8633 86.6953 59.0708C88.105 80.8021 88.5907 92.9805 88.8537 114.678C75.896 118.021 67.7769 118.608 51.4225 116.836C50.2975 100.355 49.6572 92.2509 48.4121 90.4812C45.5483 93.4795 45.3149 101.25 45.2881 116.836C42.9467 116.577 42.1011 116.096 41.3689 114.678C41.0915 103.548 41.1468 93.7374 42.5617 74.5204C43.5809 71.3893 43.2149 70.0455 42.5623 67.6497L42.5617 67.6476C49.0897 67.5991 49.6325 63.9413 48.4121 54.8676C53.2794 57.8112 56.0294 57.8715 60.9649 55.4924C67.4617 60.3595 68.8967 57.3748 71.3593 51.8004C76.0414 57.5367 79.0471 57.0905 84.9345 51.2324Z" fill="url(#paint0_linear_56_104)"/>
<path d="M38.0562 67.4771C35.9055 67.8885 35.0316 67.2452 33.6826 65.5459L32.433 85.3123C31.9529 107.334 31.8557 116.205 32.433 116.836C33.6837 121.456 36.3408 122.422 43.1114 122.46C61.9999 125.172 72.4876 125.015 90.9938 121.551C98.1686 117.997 99.0133 115.177 98.7186 109.68C98.7396 101.512 98.4595 98.9671 97.753 95.8771V82.3587C97.4809 72.3004 96.9956 68.3536 95.8786 62.5923L92.3002 60.4907C94.9372 84.9215 96.2368 106.74 95.0834 111.668C95.3211 118.53 93.5436 120.578 87.529 121.551C69.4218 124.325 59.7001 124.313 43.1114 121.551C39.1274 120.968 37.6544 119.878 36.125 116.836C34.9326 116.497 35.0747 110.235 36.125 93.0939L38.0562 67.4771Z" fill="black" stroke="black" stroke-width="0.9088"/>
<path d="M107.807 51.1768C105.8 55.0491 103.819 56.3354 97.9234 56.1752L99.2866 60.8328L94.061 60.0944L96.901 101.218H100.252C109.659 100.65 114.692 96.3317 120.53 87.472C125.242 74.1526 125.774 68.2917 122.802 60.8328C118.619 54.7366 115.282 52.6966 107.807 51.1768Z" fill="black" stroke="black" stroke-width="0.9088"/>
<path d="M105.819 58.9009C103.28 62.6097 101.369 63.3552 97.469 63.3313L99.5138 93.2081C101.2 95.9876 102.757 95.9635 106.273 94.0033C112.417 88.8751 114.895 85.4159 116.838 77.7585C118.524 65.1072 114.265 61.5159 105.819 58.9009Z" fill="white" stroke="black" stroke-width="0.9088"/>
<path d="M110.988 53.165C109.98 53.4752 109.731 53.7865 109.908 54.585C110.988 57.0842 114.623 57.1978 115.077 57.6522C115.532 58.1066 118.749 60.6499 120.246 63.0482C119.839 60.5786 119.266 59.3512 117.576 57.4818C115.609 54.9854 114.06 54.162 110.988 53.165Z" fill="white" stroke="black" stroke-width="0.9088"/>
<defs>
<linearGradient id="paint0_linear_56_104" x1="69.0877" y1="51.2324" x2="69.0877" y2="117.814" gradientUnits="userSpaceOnUse">
<stop stop-color="#C43907"/>
<stop offset="1" stop-color="#D28302"/>
</linearGradient>
</defs>
</svg>
