<svg width="152" height="140" viewBox="0 0 152 140" fill="none" xmlns="http://www.w3.org/2000/svg">
<path d="M39.8736 64.9443C34.6599 63.9971 34.1514 60.9452 34.5912 54.0955C30.1729 54.2175 26.7528 50.0627 26.3552 47.3363C25.9576 44.6099 28.611 39.5841 34.5912 38.5327C26.5256 33.6479 31.9062 27.2706 36.8632 27.9679C37.2548 22.1017 39.8649 18.2519 45.0423 16.3807C50.8927 12.6887 58.3336 23.8215 60.208 23.8215C62.0824 23.8215 62.6504 15.3351 69.296 19.6519C75.9415 23.9687 79.1791 15.0175 84.632 15.6991C90.0848 16.3806 91.0739 20.0932 90.0848 25.0711C104.443 20.5507 101.351 33.4598 99.7408 35.3517C98.1302 37.2436 106.33 36.9427 106.898 39.3847C107.466 41.8267 108.658 47.0295 105.534 48.3591C102.41 49.6888 96.1624 44.5871 95.14 45.0643C94.1175 45.5415 92.9257 49.0896 90.0848 50.0627C86.607 49.3819 86.1656 41.5199 85.9384 41.8267C85.7111 42.1335 80.4288 50.8351 77.3616 50.6307C74.2943 50.4263 70.0912 42.5991 70.148 43.4739C70.2047 44.3487 70.2616 48.0407 69.296 50.0627C68.3304 52.0847 69.4972 48.5063 68.3304 48.6427C67.1635 48.7791 65.3768 53.1299 65.3768 53.1299C62.726 52.5719 62.7544 50.414 63.1048 46.2003C62.0521 50.8384 54.1304 54.9815 54.5848 53.1299C55.0391 51.2783 58.6744 48.8703 56.8 50.0627C54.9255 51.2551 51.9377 52.7981 47.7688 49.2675C47.7688 49.2675 49.8704 46.7687 48.6776 47.3363C47.4847 47.9039 42.9975 50.1191 43.4519 50.6307C43.9064 51.1423 45.0423 50.0627 45.0423 50.0627C45.51 59.2168 46.5964 65.457 39.8736 64.9443Z" fill="white"/>
<path d="M47.144 26.4911C45.7808 23.1967 49.5864 20.7543 51.2904 23.8215M34.5912 54.0955C34.1514 60.9452 34.6599 63.9971 39.8736 64.9443C46.5964 65.457 45.51 59.2168 45.0423 50.0627C45.0423 50.0627 43.9064 51.1423 43.4519 50.6307C42.9975 50.1191 47.4847 47.9039 48.6776 47.3363C49.8704 46.7687 47.7688 49.2675 47.7688 49.2675C51.9377 52.7981 54.9255 51.2551 56.8 50.0627C58.6744 48.8703 55.0391 51.2783 54.5848 53.1299C54.1304 54.9815 62.0521 50.8384 63.1048 46.2003C62.7544 50.414 62.726 52.5719 65.3768 53.1299C65.3768 53.1299 67.1635 48.7791 68.3304 48.6427C69.4972 48.5063 68.3304 52.0847 69.296 50.0627C70.2616 48.0407 70.2047 44.3487 70.148 43.4739C70.0912 42.5991 74.2943 50.4263 77.3616 50.6307C80.4288 50.8351 85.7111 42.1335 85.9384 41.8267C86.1656 41.5199 86.607 49.3819 90.0848 50.0627C92.9257 49.0896 94.1175 45.5415 95.14 45.0643C96.1624 44.5871 102.41 49.6888 105.534 48.3591C108.658 47.0295 107.466 41.8267 106.898 39.3847C106.33 36.9427 98.1302 37.2436 99.7408 35.3517C101.351 33.4598 104.443 20.5507 90.0848 25.0711C91.0739 20.0932 90.0848 16.3806 84.632 15.6991C79.1792 15.0175 75.9415 23.9687 69.296 19.6519C62.6504 15.3351 62.0824 23.8215 60.208 23.8215C58.3336 23.8215 50.8927 12.6887 45.0423 16.3807C39.8649 18.2519 37.2548 22.1017 36.8632 27.9679C31.9062 27.2706 26.5256 33.6479 34.5912 38.5327C28.611 39.5841 25.9576 44.6099 26.3552 47.3363C26.7528 50.0627 30.1729 54.2175 34.5912 54.0955Z" stroke="black" stroke-width="1.704"/>
<path d="M37.2039 43.3958C39.5895 40.3285 43.111 41.6917 43.8495 43.907" stroke="black" stroke-width="1.704" stroke-linecap="round"/>
<path d="M41.5586 39.247C43.3284 35.7839 47.0519 36.457 48.1965 38.493" stroke="black" stroke-width="1.704" stroke-linecap="round"/>
<path d="M46.5231 25.7597C47.6718 22.0476 51.4479 22.0794 52.921 23.8912" stroke="black" stroke-width="1.704" stroke-linecap="round"/>
<path d="M68.3755 33.4264C71.8334 31.6538 74.4497 34.3769 74.1833 36.6968" stroke="black" stroke-width="1.704" stroke-linecap="round"/>
<path d="M91.7268 31.0018C94.5538 29.7282 96.8218 31.9365 96.6734 33.7387" stroke="black" stroke-width="1.704" stroke-linecap="round"/>
<path d="M97.6333 39.7504C100.46 38.4767 102.728 40.6851 102.58 42.4872" stroke="black" stroke-width="1.704" stroke-linecap="round"/>
<path d="M58.4135 33.7349C63.6244 30.3129 67.1268 34.4786 66.4888 38.3709" stroke="black" stroke-width="1.704" stroke-linecap="round"/>
<path d="M72.7262 25.1719C77.9372 21.7499 81.4395 25.9156 80.8016 29.8079" stroke="black" stroke-width="1.704" stroke-linecap="round"/>
<path d="M83.9012 31.6362C88.7903 27.7683 92.6461 31.6091 92.3538 35.5425" stroke="black" stroke-width="1.704" stroke-linecap="round"/>
<path d="M85.2006 51.6313C86.8085 54.502 88.5741 55.1672 93.5503 54.3577C96.4964 55.4344 97.6168 56.3491 97.0718 59.4697C93.3394 58.2504 91.1249 58.2623 86.9614 59.4697C88.3712 81.201 88.8568 93.3794 89.1198 115.077C76.1621 118.42 68.043 119.007 51.6886 117.235C50.5636 100.754 49.9233 92.6498 48.6782 90.8801C45.8144 93.8785 45.581 101.649 45.5542 117.235C43.2128 116.976 42.3673 116.495 41.635 115.077C41.3576 103.947 41.4129 94.1363 42.8278 74.9193C43.847 71.7883 43.481 70.4444 42.8284 68.0486L42.8278 68.0465C49.3558 67.998 49.8986 64.3402 48.6782 55.2665C53.5455 58.2101 56.2955 58.2705 61.231 55.8913C67.7278 60.7585 69.1628 57.7737 71.6254 52.1993C76.3075 57.9356 79.3133 57.4894 85.2006 51.6313Z" fill="url(#paint0_linear_56_122)"/>
<path d="M38.0572 67.4786C35.9065 67.8899 35.0326 67.2467 33.6836 65.5474L32.434 85.3138C31.9539 107.335 31.8567 116.206 32.434 116.838C33.6846 121.457 36.3418 122.424 43.1124 122.461C62.0009 125.174 72.4886 125.016 90.9948 121.552C98.1696 117.999 99.0143 115.179 98.7196 109.681C98.7406 101.513 98.4605 98.9685 97.754 95.8786V82.3602C97.4818 72.3019 96.9966 68.355 95.8796 62.5938L92.3012 60.4922C94.9382 84.9229 96.2377 106.742 95.0844 111.669C95.3221 118.532 93.5446 120.579 87.53 121.552C69.4228 124.327 59.7011 124.314 43.1124 121.552C39.1284 120.969 37.6554 119.88 36.126 116.838C34.9336 116.498 35.0756 110.236 36.126 93.0954L38.0572 67.4786Z" fill="black" stroke="black" stroke-width="0.9088"/>
<path d="M107.807 51.1768C105.8 55.0491 103.819 56.3354 97.9234 56.1752L99.2866 60.8328L94.061 60.0944L96.901 101.218H100.252C109.659 100.65 114.692 96.3317 120.53 87.472C125.242 74.1527 125.774 68.2917 122.802 60.8328C118.619 54.7366 115.282 52.6966 107.807 51.1768Z" fill="black" stroke="black" stroke-width="0.9088"/>
<path d="M105.819 58.9028C103.28 62.6117 101.369 63.3571 97.469 63.3332L99.5138 93.21C101.2 95.9895 102.757 95.9654 106.273 94.0052C112.417 88.8771 114.895 85.4179 116.838 77.7604C118.524 65.1091 114.265 61.5179 105.819 58.9028Z" fill="white" stroke="black" stroke-width="0.9088"/>
<path d="M110.988 53.165C109.98 53.4752 109.731 53.7865 109.908 54.585C110.988 57.0842 114.623 57.1978 115.077 57.6522C115.532 58.1066 118.749 60.6499 120.246 63.0482C119.839 60.5786 119.266 59.3512 117.576 57.4818C115.609 54.9854 114.06 54.162 110.988 53.165Z" fill="white" stroke="black" stroke-width="0.9088"/>
<defs>
<linearGradient id="paint0_linear_56_122" x1="69.3538" y1="51.6313" x2="69.3538" y2="118.213" gradientUnits="userSpaceOnUse">
<stop stop-color="#56A142"/>
<stop offset="1" stop-color="#203B18"/>
</linearGradient>
</defs>
</svg>
