<svg width="719" height="719" viewBox="0 0 719 719" fill="none" xmlns="http://www.w3.org/2000/svg">
<g clip-path="url(#clip0_41_5)">
<g clip-path="url(#clip1_41_5)">
<path d="M687.44 352.451C687.44 541.736 534.211 695.173 345.204 695.173C156.196 695.173 2.9675 541.736 2.9675 352.451C2.9675 163.167 156.196 9.73019 345.204 9.73019C534.211 9.73019 687.44 163.167 687.44 352.451Z" fill="black" stroke="black" stroke-width="6.78656"/>
</g>
<mask id="path-2-inside-1_41_5" fill="white">
<path d="M680.051 352.452C680.051 537.645 530.135 687.774 345.204 687.774C160.272 687.774 10.356 537.645 10.356 352.452C10.356 167.258 160.272 17.1289 345.204 17.1289C530.135 17.1289 680.051 167.258 680.051 352.452ZM26.5173 352.452C26.5173 528.707 169.198 671.59 345.204 671.59C521.209 671.59 663.89 528.707 663.89 352.452C663.89 176.196 521.209 33.3132 345.204 33.3132C169.198 33.3132 26.5173 176.196 26.5173 352.452Z"/>
</mask>
<path d="M680.051 352.452C680.051 537.645 530.135 687.774 345.204 687.774C160.272 687.774 10.356 537.645 10.356 352.452C10.356 167.258 160.272 17.1289 345.204 17.1289C530.135 17.1289 680.051 167.258 680.051 352.452ZM26.5173 352.452C26.5173 528.707 169.198 671.59 345.204 671.59C521.209 671.59 663.89 528.707 663.89 352.452C663.89 176.196 521.209 33.3132 345.204 33.3132C169.198 33.3132 26.5173 176.196 26.5173 352.452Z" fill="white" stroke="white" stroke-width="7.59938" mask="url(#path-2-inside-1_41_5)"/>
<g clip-path="url(#clip2_41_5)">
<path d="M642.933 64.5369L643.695 73.9237L537.821 159.127L530.966 171.403L468.509 221.225L451.752 204.618L512.686 153.351C517.322 151.212 520.003 150.112 524.873 148.296L629.223 65.2589L642.933 64.5369Z" fill="white" stroke="black"/>
<path d="M554.285 125.254V137.005H566.037" stroke="black"/>
<path d="M546.76 151.695L548.409 141.902H532.74" stroke="black"/>
</g>
<g clip-path="url(#clip3_41_5)">
<path d="M96.7334 60.6196L95.9717 70.0065L201.845 155.21L208.7 167.485L271.158 217.308L287.915 200.7L226.98 149.434C222.344 147.295 219.663 146.195 214.794 144.379L110.444 61.3417L96.7334 60.6196Z" fill="white" stroke="black"/>
<path d="M165.752 105V116.752H154" stroke="black"/>
<path d="M175.474 136L174 123H188" stroke="black"/>
</g>
<g clip-path="url(#clip4_41_5)">
<path d="M436.17 575.558C451.224 569.391 463.248 563.335 477.362 554.378L459.667 529.473C452.388 535.351 443.33 539.704 424.784 547.595L436.17 575.558Z" fill="white"/>
<path d="M188.115 523.513C199.215 535.405 209.14 544.503 222.516 554.527L239.535 529.156C231.459 524.432 224.18 517.504 210.229 502.957L188.115 523.513Z" fill="white"/>
<mask id="path-11-inside-2_41_5" fill="white">
<path d="M587.581 358.817C587.581 488.892 482.134 594.339 352.059 594.339C221.984 594.339 116.537 488.892 116.537 358.817C116.537 228.742 221.984 123.295 352.059 123.295C482.134 123.295 587.581 228.742 587.581 358.817ZM131.841 358.817C131.841 480.44 230.436 579.035 352.059 579.035C473.682 579.035 572.277 480.44 572.277 358.817C572.277 237.194 473.682 138.599 352.059 138.599C230.436 138.599 131.841 237.194 131.841 358.817Z"/>
</mask>
<path d="M587.581 358.817C587.581 488.892 482.134 594.339 352.059 594.339C221.984 594.339 116.537 488.892 116.537 358.817C116.537 228.742 221.984 123.295 352.059 123.295C482.134 123.295 587.581 228.742 587.581 358.817ZM131.841 358.817C131.841 480.44 230.436 579.035 352.059 579.035C473.682 579.035 572.277 480.44 572.277 358.817C572.277 237.194 473.682 138.599 352.059 138.599C230.436 138.599 131.841 237.194 131.841 358.817Z" fill="white" stroke="black" stroke-width="1.9586" mask="url(#path-11-inside-2_41_5)"/>
<path d="M570.885 373.161L542.272 371.069C541.74 381.391 540.762 386.462 539.026 397.821L567.463 403.556C570.358 392.001 571.079 385.34 570.885 373.161Z" fill="white" stroke="black" stroke-width="0.979301"/>
<path d="M551.389 238.51C541.557 222.966 535.414 214.888 523.513 201.639L516.092 207.25C528.459 221.129 534.486 229.229 543.968 244.121L551.389 238.51Z" fill="black"/>
<path d="M181.911 200.376C169.501 213.951 163.323 222.003 153.672 236.97L161.037 242.654C171.174 227.072 177.403 219.125 189.276 206.059L181.911 200.376Z" fill="black"/>
<path d="M582.527 327.236C579.896 309.033 577.585 299.151 572.129 282.198L563.064 284.291C568.688 302.009 570.885 311.864 573.462 329.329L582.527 327.236Z" fill="black"/>
<path d="M518.412 520.509C531.167 507.258 537.549 499.367 547.582 484.652L540.365 478.781C529.831 494.098 523.401 501.882 511.195 514.638L518.412 520.509Z" fill="black"/>
<path d="M450.393 570.381C466.873 562.216 475.545 556.944 489.958 546.482L485.148 538.519C470.06 549.378 461.378 554.533 445.582 562.418L450.393 570.381Z" fill="black"/>
<path d="M252.057 569.821C268.845 577.336 278.43 580.67 295.672 585.129L298.753 576.351C280.775 571.624 271.274 568.208 255.138 561.043L252.057 569.821Z" fill="black"/>
<path d="M180.333 515.57C192.793 529.099 200.285 535.944 214.37 546.844L220.664 539.993C206.009 528.557 198.626 521.67 186.627 508.719L180.333 515.57Z" fill="black"/>
<path d="M133.576 280.281C127.487 297.637 124.964 307.467 121.959 325.021L130.964 327.359C134.174 309.049 136.785 299.296 142.58 282.619L133.576 280.281Z" fill="black"/>
<path d="M147.629 277.896C141.899 293.121 138.151 306.052 135.105 322.488L165.395 326.479C166.043 317.145 169.021 307.546 175.864 288.589L147.629 277.896Z" fill="white"/>
<path d="M195.215 246.495C187.305 260.711 181.694 272.949 176.26 288.757L205.632 297.165C207.648 288.028 212.007 278.973 221.567 261.23L195.215 246.495Z" fill="white"/>
<path d="M530.865 296.356C525.628 280.954 520.316 268.583 512.237 253.949L486.299 270.092C491.722 277.716 495.514 287.023 502.26 306.016L530.865 296.356Z" fill="white"/>
<path d="M538.11 247.544C529.298 233.869 521.147 223.154 509.764 210.913L488.509 232.858C495.617 238.941 501.551 247.053 512.697 263.845L538.11 247.544Z" fill="white"/>
<path d="M189.522 210.862C178.926 223.207 170.979 234.074 162.491 248.474L189.585 262.592C193.389 254.044 199.472 246.044 212.391 230.574L189.522 210.862Z" fill="white"/>
<path d="M137.348 407.72L164.878 398.215C163.209 388.015 162.19 377.852 161.478 366.383L132.472 366.809C132.093 378.715 134.576 395.859 137.348 407.72Z" fill="white"/>
<path d="M119.821 363.237C120.454 381.619 121.675 391.694 125.253 409.14L134.492 408.047C130.831 389.822 129.72 379.787 129.06 362.144L119.821 363.237Z" fill="black"/>
<path d="M163.336 325.195C161.152 341.316 160.388 354.757 161.09 371.458L191.506 368.581C190.053 359.339 190.811 349.318 193.246 329.31L163.336 325.195Z" fill="white"/>
<path d="M542.836 380.469C543.31 364.207 542.655 350.76 540.197 334.226L510.254 340.289C512.672 349.328 512.973 359.373 512.659 379.525L542.836 380.469Z" fill="white"/>
<path d="M510.262 340.246C504.963 324.865 499.601 312.516 491.463 297.914L465.59 314.162C471.044 321.764 474.874 331.056 481.696 350.021L510.262 340.246Z" fill="white"/>
<path d="M375.265 593.516C393.451 590.767 403.318 588.392 420.235 582.825L418.083 573.774C400.402 579.513 390.562 581.774 373.114 584.465L375.265 593.516Z" fill="black"/>
<path d="M136.437 452.299C145.047 468.552 150.553 477.078 161.403 491.201L169.232 486.176C157.967 471.389 152.578 462.85 144.266 447.275L136.437 452.299Z" fill="black"/>
<path d="M511.834 509.659C522.738 497.585 530.957 486.922 539.806 472.741L513.077 457.944C509.059 466.393 502.775 474.237 489.47 489.376L511.834 509.659Z" fill="white"/>
<path d="M460.238 524.71C471.743 513.208 480.495 502.977 490.055 489.265L464.115 473.126C459.671 481.359 452.996 488.872 438.937 503.313L460.238 524.71Z" fill="white"/>
<path d="M511.188 457.982C519.612 444.064 525.666 432.039 531.674 416.44L502.629 406.965C500.28 416.022 495.594 424.912 485.392 442.294L511.188 457.982Z" fill="white"/>
<path d="M570.009 329.952C567.575 313.867 564.533 300.752 559.167 284.921L530.784 296.227C534.775 304.689 536.863 314.52 540.147 334.405L570.009 329.952Z" fill="white"/>
<path d="M179.109 468.781C188.665 481.948 197.396 492.196 209.439 503.788L229.447 480.699C222.013 475.019 215.639 467.249 203.581 451.099L179.109 468.781Z" fill="white"/>
<path d="M172.254 417.857C181.81 431.024 190.541 441.272 202.584 452.864L222.592 429.776C215.158 424.096 208.784 416.325 196.726 400.175L172.254 417.857Z" fill="white"/>
<path d="M229.054 480.533C238.609 493.699 247.34 503.947 259.383 515.539L279.391 492.451C271.957 486.771 265.583 479 253.525 462.85L229.054 480.533Z" fill="white"/>
<path d="M239.725 529.03C252.854 538.636 264.305 545.717 279.32 553.063L291.294 524.956C282.477 521.826 274.03 516.381 257.604 504.701L239.725 529.03Z" fill="white"/>
</g>
<path d="M355.026 104.688C287.327 106.486 261.035 123.089 222.834 154.721C185.291 187.594 182.484 216.429 182.16 262.9C181.603 307.362 203.949 368.375 203.95 372.432C203.951 376.489 195.235 369.727 195.235 369.727C191.873 377.216 190.991 381.846 192.329 391.363C198.347 403.942 216.902 415.278 237.361 431.931C245.804 439.02 244.996 446.041 241.719 494.134C242.068 496.703 238.045 501.785 233.003 509.008C229.341 510.453 233.25 516.281 241.719 527.94C260.92 538.902 267.208 542.076 280.941 556.337L323.068 598.256C332.695 592.104 377.144 590.279 405.869 598.256L455.259 536.053C460.856 529.196 468.818 525.971 479.954 519.826L484.312 494.134C463.243 462.516 472.113 436.402 484.312 410.295C489.964 402.151 495.434 398.339 504.649 391.363C513.115 379.936 511.7 378.438 513.365 372.432C512.378 365.729 510.46 360.262 501.744 362.966C493.028 365.671 506.184 327.462 510.46 302.115C527.843 206.936 507.554 181.766 488.67 160.13C469.786 138.494 407.613 105.43 355.026 104.688Z" fill="white" stroke="black" stroke-width="2.9379"/>
<path d="M473.212 301.393C473.212 301.393 501.235 295.839 492.386 287.506M492.386 287.506C498.802 292.185 494.323 344.025 504.184 349.998M492.386 287.506C485.319 280.853 477.312 265.343 474.373 259.365M495.335 190.297C495.353 197.656 490.291 207.748 484.849 218.071M495.335 190.396V188.908L496.81 190.297M484.849 218.071C476.908 233.133 468.161 248.686 473.212 256.955C473.212 256.955 473.631 257.857 474.373 259.365M484.849 218.071C476.763 228.561 475.02 235.492 470.263 247.234C469.311 250.539 471.967 254.178 474.373 259.365" stroke="black" stroke-width="0.979301"/>
<path d="M267.605 455.296C289.56 485.64 301.891 495.398 303.884 497.705C305.877 500.012 307.333 483.385 306.843 481.364C305.052 470.722 296.419 464.382 285.441 453.29C283.982 448.464 307.752 468.439 312.194 473.343C316.637 478.246 292.331 449.734 285.441 447.274C266.308 444.11 237.285 429.227 239.068 431.232C240.852 433.238 251.553 443.264 251.553 443.264C261.597 471.307 269.077 469.191 271.437 515.758C276.388 480.568 261.609 454.171 267.605 455.296Z" fill="black"/>
<path d="M448.36 458.44C426.404 492.718 415.548 499.035 413.555 501.641C411.561 504.247 420.439 481.109 420.929 478.826C422.721 466.805 419.545 468.704 430.523 456.174C431.983 450.722 408.212 473.287 403.769 478.826C399.325 484.365 423.633 452.157 430.523 449.378C449.657 445.804 478.682 428.991 476.899 431.256C475.115 433.522 464.413 444.848 464.413 444.848C454.368 476.526 443.938 463.155 441.578 515.76C436.627 476.007 454.356 457.169 448.36 458.44Z" fill="black"/>
<path d="M352.528 299.372C352.58 300.601 352.39 301.632 351.813 302.249C351.992 301.147 352.226 300.192 352.528 299.372Z" fill="#D9D9D9"/>
<path d="M300.193 321.58C300.193 321.58 307.936 313.295 310.517 310.533C313.098 307.772 318.26 305.01 320.841 302.249C323.422 299.487 324.159 305.01 326.74 305.01C329.321 305.01 338.908 296.726 341.489 296.726C344.07 296.726 346.651 285.679 349.232 288.441C349.232 288.441 354.394 299.487 351.813 302.249M351.813 302.249C346.982 306.597 349.305 308.753 353.288 312.994C359.381 315.314 357.918 318.077 356.238 322.715C351.219 328.895 347.145 331.073 349.232 335.388C353.126 339.864 356.006 342.031 354.394 349.196L349.232 365.765M351.813 302.249C353.055 294.59 356.997 294.016 367.299 296.726C369.262 292.477 371.061 295.886 377.623 305.01C377.623 305.01 385.366 307.772 387.947 307.772C390.528 307.772 403.433 318.818 403.433 318.818" stroke="black" stroke-width="0.979301"/>
<path d="M230.872 322.715C230.872 322.715 202.85 317.16 211.699 308.828M211.699 308.828C205.282 313.507 209.761 365.347 199.9 371.32M211.699 308.828C217.014 303.824 222.861 293.809 226.684 286.609M205.8 214.396C204.26 231.07 213.312 243.145 221.194 253.28M221.194 253.28C228.41 262.558 234.645 270.21 230.872 278.276C230.872 278.276 229.226 281.821 226.684 286.609M221.194 253.28C230.266 260.079 234.447 266.897 233.822 276.888C229.465 282.986 228.708 283.931 226.684 286.609" stroke="black" stroke-width="0.979301"/>
<path d="M300.152 524.669C301.418 516.812 303.039 509.017 302.59 507.536C302.471 506.978 302.359 506.459 302.251 505.978M300.152 524.669C300.152 524.669 301.612 526.535 303.247 528.44M300.152 524.669C299.872 524.757 299.447 524.654 298.932 524.417M302.251 505.978C301.566 502.926 301.062 501.425 300.152 501.305C298.723 501.305 297.922 501.305 296.494 501.305C294.058 501.375 293.896 502.827 292.836 504.42C292.17 508.935 291.293 508.888 291.616 518.439C291.77 518.626 291.978 518.855 292.228 519.115M302.251 505.978H307.468L309.907 509.093M309.907 509.093C310.551 512.353 308.687 532.457 307.468 532.457M309.907 509.093C309.907 509.093 312.345 507.536 313.565 507.536C314.784 507.536 317.223 512.208 317.223 512.208M307.468 532.457L309.417 535.645M307.468 532.457C306.845 532.457 304.952 530.427 303.247 528.44M317.223 512.208C317.223 512.208 316.462 536.2 316.003 538.687M317.223 512.208C318.458 510.157 319.538 509.51 322.1 509.093C325.021 509.142 326.586 512.529 329.416 516.881M316.003 538.687C315.545 541.175 311.505 539.027 311.366 538.833M316.003 538.687C317.158 540.135 318.134 541.443 319.01 542.485M311.126 538.687C311.126 538.687 311.214 538.744 311.366 538.833M311.366 538.833L309.417 535.645M329.416 516.881C326.749 522.765 327.256 528.426 326.978 537.13C326.909 537.767 330.636 544.918 329.416 544.918M329.416 516.881C333.623 512.039 336.175 511.194 341.61 518.439M329.416 544.918C333.716 545.873 337.328 546.002 339.518 544.714M329.416 544.918C329.224 544.918 328.91 544.918 328.517 544.918M341.61 518.439C342.894 520.085 342.084 529.917 341.61 541.803M341.61 518.439C347.681 512.42 350.924 512.67 356.242 519.996C356.547 520.257 356.731 521.026 356.829 522.188M341.61 541.803C346.55 548.709 349.651 549.342 355.606 543.949M341.61 541.803C341.297 543.145 340.572 544.094 339.518 544.714M356.242 543.36C356.503 534.753 357.166 526.166 356.829 522.188M356.242 543.36C361.635 547.208 364.967 548.142 369.655 546.143M356.242 543.36C356.027 543.564 355.814 543.76 355.606 543.949M356.829 522.188C358.234 517.587 359.29 516.315 361.12 513.766C361.484 512.837 364.297 512.218 368.436 513.766C369.656 514.294 371.478 517.351 372.094 519.996M372.094 519.996C372.479 523.707 372.218 534.073 372.094 544.918M372.094 519.996C372.408 514.674 373.763 513.013 378.191 512.208C380.122 512.209 381.223 512.924 383.068 515.324M372.094 544.918C376.03 552.41 378.43 552.59 383.068 546.475M372.094 544.918C371.234 545.405 370.427 545.814 369.655 546.143M383.068 515.324C384.751 510.8 386.015 509.409 389.165 509.093C391.389 509.513 392.679 511.496 394.352 516.881M383.068 515.324C383.624 515.183 383.235 529.895 383.096 543.36M383.068 546.475C383.076 545.45 383.085 544.409 383.096 543.36M383.068 546.475C383.563 555.766 379.732 564.02 379.41 569.839M395.262 543.36C390.866 546.898 388.169 546.664 383.096 543.36M395.262 543.36C395.277 542.835 395.291 542.315 395.306 541.803M395.262 543.36C395.262 543.36 391.604 565.166 391.604 566.724M394.352 516.881C394.641 517.814 394.943 518.849 395.262 519.996C395.982 522.047 395.634 530.325 395.306 541.803M394.352 516.881C395.172 513.275 395.816 511.36 398.92 509.093C402.194 508.103 402.987 512.453 403.798 523.112V538.687M403.798 538.687C407.755 538.47 409.043 537.453 409.894 534.015M403.798 538.687C403.707 539.842 403.318 540.613 402.578 541.11M395.306 541.803C398.963 542.012 401.297 541.971 402.578 541.11M402.578 512.208C404.257 505.899 405.695 504.507 409.894 509.093M409.894 509.093C411.291 512.528 410.435 521.841 409.894 534.015M409.894 509.093C409.894 509.093 414.772 504.42 415.991 504.42C417.211 504.42 415.991 530.899 415.991 530.899M409.894 534.015C410.94 533.702 411.824 533.425 412.567 533.173M415.991 530.899C417.31 530.607 418.129 534.285 419.649 543.36C419.904 544.612 415.991 546.475 414.772 544.918M415.991 530.899C416.084 531.671 415.257 532.259 412.567 533.173M414.772 544.918C413.553 543.36 412.567 533.173 412.567 533.173M414.772 544.918C416.127 547.286 417.404 548.531 417.211 551.148C417.209 551.853 408.675 557.378 408.675 555.821M408.675 555.821C408.675 554.263 408.675 537.13 408.675 537.13M408.675 555.821C408.575 557.599 400.14 565.166 400.14 563.609C400.14 563.167 400.336 561.167 400.617 558.527M402.578 541.11C402.578 541.11 401.327 551.858 400.617 558.527M400.617 558.527C397.912 565.264 391.604 568.282 391.604 566.724M391.604 566.724C390.995 570.69 389.877 572.614 387.946 576.07C387.621 576.521 385.337 576.173 383.068 576.07C381.762 575.688 380.895 573.177 379.41 569.839M379.41 569.839C375.386 573.883 373.272 574 369.655 569.839M369.655 569.839V546.143M369.655 569.839C364.222 574.187 356.242 566.724 356.242 563.609M356.242 563.609C356.242 560.494 355.606 543.949 355.606 543.949M356.242 563.609C352.279 571.009 349.512 570.07 344.049 563.609M344.049 563.609L339.518 544.714M344.049 563.609C339.029 572.822 334.031 571.268 331.855 565.166M331.855 565.166L328.517 544.918M331.855 565.166C325.046 570.615 322.238 569.422 318.442 562.051M328.517 544.918C326.424 544.918 322.1 544.918 322.1 544.918C321.128 544.753 320.155 543.847 319.01 542.485M318.442 562.051L319.01 542.485M318.442 562.051C312.594 562.726 310.82 559.905 308.687 552.706M308.687 552.706L309.417 535.645M308.687 552.706C304.287 554.138 301.234 551.894 301.371 549.591L301.725 545.602M303.247 528.44L301.725 545.602M301.725 545.602C295.231 544.966 294.069 542.566 295.274 535.572M295.274 535.572C296.471 528.309 297.238 525.446 298.932 524.417M295.274 535.572C292.903 535.519 291.876 535.123 290.397 534.015C288.985 523.899 290.712 523.314 292.228 519.115M298.932 524.417C296.997 523.524 293.791 520.736 292.228 519.115" stroke="black"/>
<path d="M323.849 435.457C322.882 443.744 334.172 453.51 335.648 454.898C337.123 456.287 331.222 445.177 331.222 445.177C331.004 444.591 331.005 444.287 331.222 443.789C331.222 443.789 335.648 445.177 337.122 445.177C338.596 445.177 333.6 439.564 331.222 438.234V427.124C338.159 430.138 342.072 432.782 348.921 432.679C347.541 436.131 346.724 438.246 345.971 438.99C345.721 439.739 345.795 441.59 345.971 445.177C345.971 445.177 338.597 449.344 340.072 450.732C341.546 452.121 348.544 449.255 348.921 447.955C348.532 444.997 348.685 444.607 348.921 443.789C353.06 436.034 353.403 434.485 353.345 432.679V409.071C352.911 399.065 351.982 395.884 348.921 395.184C351.005 386.414 351.951 384.139 353.345 385.463C356.502 397.433 356.778 407.046 362.195 414.626C359.925 421.582 357.707 427.218 357.77 429.902C360.214 438.294 361.925 447.578 363.669 446.566C364.016 446.061 364.398 441.367 365.144 431.29C371.101 431.186 373.506 430.388 375.468 427.124C377.409 428.922 378.543 429.908 378.418 432.679C379.711 437.095 369.569 439.623 369.569 441.011C369.569 442.4 371.785 442.751 376.943 442.4C378.487 442.79 372.945 456.767 375.468 456.287C377.992 455.807 384.422 428.271 384.317 425.736C381.098 415.538 378.92 412.573 375.468 409.071C375.819 401.024 376.28 395.349 375.468 392.407C367.717 382.24 369.179 378.554 366.619 370.187C361.921 366.068 359.335 365.261 354.82 366.021C349.97 360.289 350.657 356.371 350.396 357.689C351.675 359.039 332.122 378.855 325.323 386.852C324.118 388.877 327.495 398.597 328.273 404.905C328.638 409.083 325.987 422.003 323.849 435.457Z" fill="black"/>
<path d="M413.499 288.035C422.418 291.541 442.09 299.806 478.387 301.92C480.734 300.838 485.306 313.926 491.659 329.691C488.695 341.88 484.718 348.35 488.71 361.628C481.734 367.933 477.726 371.972 471.013 376.903C458.84 372.48 449.815 367.905 442.994 368.571C433.179 369.708 425.897 370.65 426.772 369.96C407.46 357.382 385.405 345.201 384.005 340.8C382.9 331.368 381.927 325.664 384.005 319.972C397.504 303.935 409.428 287.101 413.499 288.035Z" fill="black"/>
<path d="M295.768 288.035C286.849 291.542 267.175 299.808 230.874 301.922C228.526 300.84 223.954 313.929 217.6 329.696C220.564 341.886 224.542 348.357 220.55 361.636C227.526 367.942 231.535 371.981 238.248 376.912C250.423 372.489 259.448 367.913 266.271 368.58C276.086 369.717 283.369 370.659 282.494 369.968C301.807 357.389 323.865 345.207 325.265 340.806C326.371 331.372 327.343 325.668 325.265 319.975C311.765 303.937 299.84 287.101 295.768 288.035Z" fill="black"/>
<path d="M239.753 222.377C239.753 222.377 235.284 233.953 236.774 233.953C238.263 233.953 251.673 222.377 251.673 222.377H257.632L260.612 225.271L272.531 207.907L260.612 176.074L239.753 174.627L230.814 184.756C230.814 184.756 217.405 184.756 217.405 186.203C217.405 187.65 229.036 194.565 232.304 202.119L227.834 213.695L235.284 209.354L238.263 218.036C239.522 219.471 240.473 220.182 239.753 222.377Z" fill="black" stroke="black" stroke-width="0.979301"/>
<path d="M239.753 183.309C238.264 183.309 235.284 187.65 235.284 187.65L248.693 216.59C248.693 216.59 253.163 218.037 254.652 216.59C256.142 215.143 241.243 183.309 239.753 183.309Z" fill="white"/>
<path d="M256.142 184.756C256.142 184.756 248.693 183.309 247.203 183.309C245.713 183.309 260.612 218.037 260.612 216.59C260.612 215.143 265.082 209.355 265.082 207.908C265.082 206.461 256.142 184.756 256.142 184.756Z" fill="white"/>
<path d="M297.557 142.887C288.793 149.741 281.99 152.997 279.566 161.819C279.281 163.183 281.129 166.225 284.165 171.36L281.696 174.677C286.039 179.778 286.058 182.789 286.294 184.218C286.531 185.646 281.357 190.851 281.357 190.851L291.129 195.187L305.89 184.087C308.939 187.622 310.803 189.369 315.9 189.851C321.191 187.27 323.727 185.897 324.016 184.187L322.833 177.043C321.452 179.255 319.981 179.399 317.185 179.391L311.218 152.477C311.218 152.477 313.45 147.732 316.392 147.272C319.334 146.813 307.854 141.278 307.854 141.278C304.403 146.434 302.275 147.822 297.557 142.887Z" fill="black" stroke="black" stroke-width="0.979301"/>
<path d="M297.743 153.117C293.297 155.998 287.144 159.359 287.394 163.527C287.692 165.023 288.485 166.399 291.046 167.353C293.362 166.483 297.293 163.129 301.868 159.8C301.966 158.648 300.755 155.675 297.743 153.117Z" fill="white"/>
<path d="M304.522 166.714C298.719 167.139 292.682 169.999 292.23 174.497L293.413 181.64C294.649 182.799 296.06 183.997 299.77 183.578C303.068 182.847 303.943 180.507 306.415 178.143C308.458 175.172 307.158 170.991 304.522 166.714Z" fill="white"/>
<path d="M342.741 147.134C341.804 148.626 344.546 149.666 348.701 151.475L348.701 176.074C345.129 178.621 342.051 179.809 342.741 183.309C348.391 186.448 353.908 190.287 354.66 189.097C359.52 185.037 362.386 181.885 366.58 181.862C368.221 179.329 368.054 178.463 366.58 177.521C364.062 177.222 359.632 177.714 357.456 178.968V155.816C358.605 152.413 369.667 147.595 373.845 147.134C375.758 148.704 366.74 153.58 370.865 155.816C370.865 155.816 382.604 148.805 384.459 145.687C380.175 144.216 377.698 138.669 377.009 137.005C376.112 137.696 370.68 144.106 360.62 147.134L353.171 138.452C351.947 137.169 347.762 142.315 342.741 147.134Z" fill="black" stroke="black" stroke-width="0.979301"/>
<path d="M406.677 163.771L401.425 158.639C409.387 155.483 417.731 150.315 420.009 145.187C422.286 140.06 420.282 143.365 416.382 159.296L429.651 161.177C428.117 166.098 423.242 166.557 421.522 168.839L412.91 166.741L405.133 193.438C408.079 191.897 411.775 191.121 412.91 192.438C413.668 195.495 414.319 197.539 413.523 198.374L400.87 202.43L391.84 192.377C390.894 191.525 392.469 191.082 398.167 190.349L406.677 163.771Z" fill="black" stroke="black" stroke-width="0.979301"/>
<path d="M477.51 189.132L491.15 194.952C484.397 199.204 480.626 201.698 472.551 196.499C467.591 192.134 464.822 189.798 460.109 188.029C455.885 190.444 453.797 191.834 453.785 194.814L461.969 198.306C461.969 198.306 459.52 189.331 465.307 198.122C471.094 206.914 466.713 207.922 464.882 212.323C460.714 218.088 458.315 217.878 455.42 227.197C453.031 227.765 453.095 230.447 447.421 226.869L437.975 211.775C435.238 209.429 433.335 208.191 423.735 207.28C431.804 203.482 434.679 203.589 440.207 203.245C442.839 206.732 443.26 208.147 450.086 213.782C456.81 214.209 456.722 209.876 456.391 208.354C453.782 203.673 457.334 201.177 449.424 200.855C441.514 200.534 442.408 188.864 444.07 187.508C451.083 179.513 454.953 174.25 462.939 178.173C468.984 183.229 472.807 187.011 477.51 189.132Z" fill="black" stroke="black" stroke-width="0.979301"/>
<g clip-path="url(#clip5_41_5)">
<path d="M372.479 479.673C374.075 480.615 375.784 488.272 375.458 489.802" stroke="black"/>
<path d="M360.784 489.86C359.882 488.271 362.323 480.804 363.389 479.634" stroke="black"/>
<path d="M348.279 492.812C347.377 491.223 349.818 483.756 350.884 482.586" stroke="black"/>
<path d="M339.34 484.13C338.438 482.542 340.879 475.074 341.945 473.905" stroke="black"/>
<path d="M323.33 489.527C322.803 487.786 326.851 481.009 328.152 480.091" stroke="black"/>
<path d="M310.661 485.207C310.755 483.395 316.88 478.296 318.421 477.847" stroke="black"/>
<path d="M383.272 483.022C385.045 483.594 388.47 490.688 388.505 492.249" stroke="black"/>
<path d="M393.337 474.617C395.125 475.142 398.747 482.143 398.825 483.703" stroke="black"/>
<path d="M405.256 481.116C407.124 481.174 412.491 487.023 412.983 488.51" stroke="black"/>
<path d="M423.135 558.609C424.847 558.791 427.922 563.245 427.894 564.312" stroke="black"/>
<path d="M301.448 564.629C301.028 563.007 304.261 558.659 305.3 558.313" stroke="black"/>
<path d="M415.008 566.797C416.63 567.905 418.548 577.152 418.265 579.013" stroke="black"/>
<path d="M312.425 578.365C311.738 576.559 315.566 567.89 316.888 566.514" stroke="black"/>
<path d="M405.256 575.239C406.873 576.127 408.751 583.583 408.46 585.087" stroke="black"/>
<path d="M328.213 585.201C327.288 583.636 329.588 576.292 330.629 575.143" stroke="black"/>
<path d="M384.398 582.268C386.354 582.607 392.167 590.235 392.731 592.047" stroke="black"/>
<path d="M339.055 587.647C338.727 585.743 344.172 577.863 345.74 576.739" stroke="black"/>
<path d="M364.706 574.388C366.631 575.634 371.29 588.26 371.571 590.93" stroke="black"/>
<path d="M353.469 590.508C352.458 588.474 354.978 575.252 356.117 572.806" stroke="black"/>
</g>
<g clip-path="url(#clip6_41_5)">
<path d="M46.891 435.842L39.9793 423.46C47.9842 424.125 52.5303 424.404 55.4959 433.078C56.5647 439.303 57.226 442.701 59.7697 446.794C64.6186 447.397 67.1422 447.545 69.066 445.269L64.9189 437.84C64.9189 437.84 61.0661 446.138 62.195 436.042C63.324 425.945 67.3927 427.717 71.6491 425.409C78.608 423.413 80.3459 424.967 88.593 419.51C90.8235 420.461 92.4966 418.37 94.6281 424.407L92.3069 441.457C92.9369 444.844 93.6268 446.898 100.538 453.172C91.7974 451.395 89.6212 449.643 85.0841 446.696C85.2692 442.496 85.8491 441.167 84.1394 432.885C79.1643 428.653 76.4492 432.023 75.7292 433.381C74.7593 438.483 70.383 438.333 76.3525 443.173C82.3221 448.014 74.1263 456.435 71.9578 456.509C61.3454 458.561 54.9435 460.345 51.2282 452.701C49.756 445.317 49.2007 440.198 46.891 435.842Z" fill="white" stroke="black" stroke-width="0.979301"/>
<path d="M90.0744 406.227L94.1888 401.655C95.8179 399.77 90.3126 390.693 87.4563 392.34C84.6 393.987 84.7134 395.388 84.7134 395.388L80.259 395.757L74.8979 384.918L78.8991 378.945L84.8383 378.454L89.406 379.486L92.0356 375.037L87.0146 368.401L82.7868 371.572L73.878 372.309C73.878 372.309 71.1286 378.179 69.8769 378.282C68.6252 378.386 73.8844 369.488 67.7121 369.999C61.5399 370.51 54.922 375.29 53.3174 376.833C51.7129 378.376 51.7077 393.89 51.7077 393.89L33.8901 395.366C33.1742 397.528 40.4023 399.058 38.6845 399.2C36.9666 399.342 34.4763 402.707 36.0549 403.649L86.7648 402.27C87.7986 402.399 88.5406 403.21 90.0744 406.227Z" fill="white"/>
<path d="M75.5723 396.145C75.6857 397.546 59.2396 397.498 59.2396 397.498C56.5832 396.381 53.3775 390.424 57.9929 382.087C57.9929 382.087 63.9321 381.595 65.3036 380.071C66.6751 378.547 75.459 394.744 75.5723 396.145Z" fill="black"/>
<path d="M37.1761 347.023L44.9607 356.547L49.2787 352.145L77.6056 352.367L82.2666 357.8L88.1219 354.741L87.9748 350.526L81.1884 326.891L85.7024 328.109L91.4106 320.835L85.1633 312.654L77.8687 317.18L52.4693 315.429L49.3947 312.743L40.7099 320.142L46.9572 328.322L49.7868 323.983L72.2585 327.264L80.0922 338.193L77.3116 343.937L53.4495 343.528L45.7629 336.815L37.1761 347.023Z" fill="white" stroke="black" stroke-width="0.979301"/>
<path d="M44.6141 285.745L44.727 288.554L44.7835 289.958L77.8202 295.793C79.1962 297.769 79.8174 298.054 80.9108 298.495L83.8885 298.387C88.5978 297.453 90.009 296.297 91.1633 293.903L91.0503 291.094C90.3623 288.442 90.9734 287.036 87.7903 284.18L83.3238 284.342C83.3238 284.342 80.0178 285.595 80.4591 287.259C80.9004 288.922 48.6854 275.751 48.6854 275.751C48.3331 274.671 46.8837 271.608 44.7122 273.027L44.3883 280.127C44.3259 281.563 46.6989 283.022 50.5695 285.529L44.6141 285.745Z" fill="white" stroke="black" stroke-width="0.979301"/>
<path d="M52.8197 245.786L52.2566 248.543L51.9751 249.922L82.7491 262.859C83.6157 265.083 84.1525 265.496 85.1117 266.166L88.0373 266.715C92.8472 266.841 94.4983 266.027 96.1959 263.952L96.7589 261.195C96.7245 258.463 97.6565 257.23 95.241 253.752L90.8526 252.928C90.8526 252.928 87.3326 253.421 87.3639 255.136C87.3952 256.851 59.1788 236.959 59.1788 236.959C59.0945 235.831 58.4169 232.532 55.9622 233.436L53.9458 240.271C53.541 241.654 55.5021 243.596 58.6709 246.884L52.8197 245.786Z" fill="white" stroke="black" stroke-width="0.979301"/>
</g>
<path d="M576.184 424.066C580.804 406.263 582.497 396.256 584.027 378.513L574.859 376.934C573.187 395.448 571.399 405.385 567.016 422.487L576.184 424.066Z" fill="black"/>
<path d="M556.806 376.307L502.381 376.307C496.613 385.55 495.491 389.752 489.161 395.541L495.526 415.616L505.319 452.34L546.94 483.678L559.671 481.719L593.946 453.32L604.229 408.272C603.883 403.553 600.046 400.124 595.993 397.375L556.806 376.307Z" stroke="white" stroke-width="2.9379"/>
<path d="M557.284 378.292L511.218 377.754C505.45 386.997 498.311 394.017 491.981 399.806L497.248 416.767L506.798 451.845L547.117 482.095L556.385 480.953L590.692 453.936L601.848 409.056C601.503 404.337 600.525 402.109 596.471 399.36L557.284 378.292Z" fill="black"/>
<g clip-path="url(#clip7_41_5)">
<rect x="546.499" y="376.979" width="2.9379" height="43.3671" rx="0.979301" transform="rotate(2.88151 546.499 376.979)" fill="white"/>
</g>
<rect width="2.92816" height="43.0783" transform="matrix(-0.998502 -0.0547136 -0.0547136 0.998502 557.291 377.424)" fill="white"/>
<g clip-path="url(#clip8_41_5)">
<path d="M545.315 420.525C546.111 420.353 547.813 419.495 547.182 418.539L505.174 385.862L503.387 388.159C503.387 388.159 544.518 420.698 545.315 420.525Z" fill="white"/>
</g>
<g clip-path="url(#clip9_41_5)">
<rect width="2.9379" height="56.485" rx="1.46895" transform="matrix(0.613982 -0.78932 -0.78932 -0.613982 541.106 429.504)" fill="white"/>
</g>
<g clip-path="url(#clip10_41_5)">
<path d="M540.026 425.987C540.793 425.683 541.666 426.019 542.029 426.761V426.761C542.435 427.59 542.046 428.591 541.185 428.927L504.899 443.116C504.142 443.411 503.288 443.038 502.991 442.282V442.282C502.695 441.527 503.065 440.674 503.819 440.375L540.026 425.987Z" fill="white"/>
</g>
<g clip-path="url(#clip11_41_5)">
<path d="M546.518 434.591C547.406 435.575 547.509 435.915 547.527 437.224L506.215 454.391L505.023 451.459L546.518 434.591Z" fill="white"/>
</g>
<g clip-path="url(#clip12_41_5)">
<rect x="550.702" y="436.627" width="2.49379" height="45.8896" rx="0.979301" transform="rotate(2.54796 550.702 436.627)" fill="white"/>
</g>
<g clip-path="url(#clip13_41_5)">
<rect x="544.775" y="436.165" width="2.79341" height="45.1922" rx="0.979301" transform="rotate(2.54796 544.775 436.165)" fill="white"/>
</g>
<g clip-path="url(#clip14_41_5)">
<rect width="2.86222" height="40.1054" rx="0.979301" transform="matrix(0.613982 -0.78932 -0.78932 -0.613982 582.092 463.198)" fill="white"/>
</g>
<g clip-path="url(#clip15_41_5)">
<path d="M558.16 426.607C557.473 426.807 556.038 427.934 556.533 428.739L590.927 454.995L592.554 452.863C592.554 452.863 558.848 426.407 558.16 426.607Z" fill="white"/>
</g>
<g clip-path="url(#clip16_41_5)">
<path d="M603.576 408.138L604.876 411.336L559.383 429.83L558.083 426.632L603.576 408.138Z" fill="white"/>
</g>
<g clip-path="url(#clip17_41_5)">
<rect x="600.694" y="399.213" width="2.52456" height="50.9418" rx="0.979301" transform="rotate(67.878 600.694 399.213)" fill="white"/>
</g>
<path d="M145.606 376.014L200.029 376.429C205.726 385.716 206.816 389.926 213.102 395.763L206.584 415.789L196.511 452.438L154.653 483.457L141.938 481.401L107.88 452.741L97.9407 407.616C98.3219 402.9 102.185 399.501 106.259 396.782L145.606 376.014Z" stroke="white" stroke-width="2.9379"/>
<path d="M145.113 377.996L191.182 377.809C196.879 387.095 203.964 394.17 210.25 400.007L204.853 416.926L195.036 451.931L154.488 481.873L145.229 480.66L111.129 453.383L100.316 408.419C100.697 403.703 101.692 401.482 105.766 398.764L145.113 377.996Z" fill="black"/>
<g clip-path="url(#clip18_41_5)">
<rect width="2.9379" height="43.3671" rx="0.979301" transform="matrix(-0.99909 0.0426577 0.0426577 0.99909 155.908 376.765)" fill="white"/>
</g>
<rect width="2.92816" height="43.0783" transform="translate(145.112 377.127) rotate(-2.69977)" fill="white"/>
<g clip-path="url(#clip19_41_5)">
<path d="M156.76 420.319C155.965 420.14 154.27 419.269 154.907 418.318L197.164 385.962L198.933 388.272C198.933 388.272 157.555 420.497 156.76 420.319Z" fill="white"/>
</g>
<g clip-path="url(#clip20_41_5)">
<rect x="160.9" y="429.329" width="2.9379" height="56.485" rx="1.46895" transform="rotate(-127.441 160.9 429.329)" fill="white"/>
</g>
<g clip-path="url(#clip21_41_5)">
<path d="M162.007 425.821C161.243 425.51 160.368 425.84 159.999 426.579V426.579C159.586 427.406 159.968 428.409 160.826 428.752L197.003 443.216C197.758 443.518 198.614 443.151 198.917 442.397V442.397C199.219 441.644 198.856 440.789 198.104 440.484L162.007 425.821Z" fill="white"/>
</g>
<g clip-path="url(#clip22_41_5)">
<path d="M155.45 434.374C154.554 435.351 154.449 435.691 154.42 437L195.601 454.481L196.815 451.558L155.45 434.374Z" fill="white"/>
</g>
<g clip-path="url(#clip23_41_5)">
<rect width="2.49379" height="45.6576" rx="0.979301" transform="matrix(-0.999321 0.0368409 0.0368409 0.999321 151.251 436.395)" fill="white"/>
</g>
<g clip-path="url(#clip24_41_5)">
<rect width="2.79341" height="44.4464" transform="matrix(-0.999321 0.0368409 0.0368409 0.999321 157.211 436.842)" fill="white"/>
</g>
<g clip-path="url(#clip25_41_5)">
<rect x="119.274" y="462.233" width="2.86222" height="40.7182" rx="0.979301" transform="rotate(-127.441 119.274 462.233)" fill="white"/>
</g>
<g clip-path="url(#clip26_41_5)">
<path d="M143.87 426.303C144.558 426.507 145.986 427.643 145.481 428.447L110.705 454.578L109.094 452.434C109.094 452.434 143.183 426.099 143.87 426.303Z" fill="white"/>
</g>
<g clip-path="url(#clip27_41_5)">
<path d="M99.2847 407.775L97.9602 410.963L142.621 429.516L143.946 426.327L99.2847 407.775Z" fill="white"/>
</g>
<g clip-path="url(#clip28_41_5)">
<rect width="2.52456" height="50.9418" rx="0.979301" transform="matrix(-0.38363 0.923487 0.923487 0.38363 101.543 398.585)" fill="white"/>
</g>
<path d="M646.093 312.442L648.69 308.349L637 301.528H630.506L639.598 317.899V331.543L637 335.635L599.332 313.807V319.264L603.229 328.814L646.093 357.464V312.442Z" fill="white"/>
<path d="M638.299 365.65H635.701V377.929C635.629 379.653 635.961 380.878 633.104 380.657L605.827 372.472L601.93 367.014H599.332V372.472L601.93 387.479H605.827V384.75L649.989 397.029V391.572L638.299 365.65Z" fill="white"/>
</g>
<defs>
<clipPath id="clip0_41_5">
<rect width="718.118" height="718.118" fill="white" transform="translate(0 0.882324)"/>
</clipPath>
<clipPath id="clip1_41_5">
<rect width="703.138" height="703.138" fill="white" transform="translate(0.0488281 0.931396)"/>
</clipPath>
<clipPath id="clip2_41_5">
<rect width="192.237" height="156.688" fill="white" transform="matrix(-1 0 0 1 643.694 64.5369)"/>
</clipPath>
<clipPath id="clip3_41_5">
<rect width="192.237" height="156.248" fill="white" transform="translate(95.9717 60.6196)"/>
</clipPath>
<clipPath id="clip4_41_5">
<rect width="471.044" height="471.044" fill="white" transform="translate(116.537 123.295)"/>
</clipPath>
<clipPath id="clip5_41_5">
<rect width="128.269" height="119.455" fill="white" transform="translate(299.666 473.885)"/>
</clipPath>
<clipPath id="clip6_41_5">
<rect width="90.0957" height="232.094" fill="white" transform="translate(7.83447 241.796) rotate(-5.61723)"/>
</clipPath>
<clipPath id="clip7_41_5">
<rect width="3.19193" height="42.2165" fill="white" transform="matrix(-0.998502 -0.0547136 -0.0547136 0.998502 550.525 376.889)"/>
</clipPath>
<clipPath id="clip8_41_5">
<rect width="3.91721" height="53.8616" fill="white" transform="matrix(0.613982 -0.78932 -0.78932 -0.613982 545.715 421.435)"/>
</clipPath>
<clipPath id="clip9_41_5">
<rect width="2.9379" height="58.2983" fill="white" transform="matrix(0.613982 -0.78932 -0.78932 -0.613982 541.365 429.812)"/>
</clipPath>
<clipPath id="clip10_41_5">
<rect width="2.9379" height="43.0893" fill="white" transform="matrix(0.365397 0.930852 0.930852 -0.365397 503.674 441.765)"/>
</clipPath>
<clipPath id="clip11_41_5">
<rect width="2.9379" height="48.259" fill="white" transform="matrix(0.376581 0.926384 0.926384 -0.376581 505.022 451.459)"/>
</clipPath>
<clipPath id="clip12_41_5">
<rect width="3.68646" height="46.3158" fill="white" transform="matrix(0.999011 0.0444556 0.0444556 -0.999011 548.438 482.576)"/>
</clipPath>
<clipPath id="clip13_41_5">
<rect width="4.0825" height="45.8227" fill="white" transform="matrix(0.999011 0.0444556 0.0444556 -0.999011 542.526 481.34)"/>
</clipPath>
<clipPath id="clip14_41_5">
<rect width="3.55017" height="42.4036" fill="white" transform="matrix(0.613982 -0.78932 -0.78932 -0.613982 583.126 462.928)"/>
</clipPath>
<clipPath id="clip15_41_5">
<rect width="2.9379" height="44.7737" fill="white" transform="matrix(0.613982 -0.78932 -0.78932 -0.613982 590.922 455.23)"/>
</clipPath>
<clipPath id="clip16_41_5">
<rect width="4.60553" height="50.0143" fill="white" transform="matrix(0.376581 0.926384 0.926384 -0.376581 557.678 426.409)"/>
</clipPath>
<clipPath id="clip17_41_5">
<rect width="3.09715" height="50.9237" fill="white" transform="matrix(0.376581 0.926384 0.926384 -0.376581 552.744 418.073)"/>
</clipPath>
<clipPath id="clip18_41_5">
<rect width="3.19193" height="42.2165" fill="white" transform="translate(151.881 376.644) rotate(-2.69977)"/>
</clipPath>
<clipPath id="clip19_41_5">
<rect width="3.91721" height="53.8616" fill="white" transform="translate(156.353 421.226) rotate(-127.441)"/>
</clipPath>
<clipPath id="clip20_41_5">
<rect width="2.9379" height="58.2983" fill="white" transform="translate(160.638 429.635) rotate(-127.441)"/>
</clipPath>
<clipPath id="clip21_41_5">
<rect width="2.9379" height="43.0893" fill="white" transform="translate(198.238 441.875) rotate(111.869)"/>
</clipPath>
<clipPath id="clip22_41_5">
<rect width="2.9379" height="48.259" fill="white" transform="translate(196.815 451.558) rotate(112.559)"/>
</clipPath>
<clipPath id="clip23_41_5">
<rect width="3.68646" height="46.1007" fill="white" transform="translate(153.156 482.129) rotate(177.889)"/>
</clipPath>
<clipPath id="clip24_41_5">
<rect width="4.0825" height="44.6043" fill="white" transform="translate(159.089 481.289) rotate(177.889)"/>
</clipPath>
<clipPath id="clip25_41_5">
<rect width="2.9379" height="41.6657" fill="white" transform="translate(118.543 461.724) rotate(-127.441)"/>
</clipPath>
<clipPath id="clip26_41_5">
<rect width="2.9379" height="44.3798" fill="white" transform="translate(110.709 454.813) rotate(-127.441)"/>
</clipPath>
<clipPath id="clip27_41_5">
<rect width="4.60553" height="49.2422" fill="white" transform="translate(144.352 426.108) rotate(112.559)"/>
</clipPath>
<clipPath id="clip28_41_5">
<rect width="3.09715" height="50.9237" fill="white" transform="translate(149.349 417.81) rotate(112.559)"/>
</clipPath>
</defs>
</svg>
